<?xml version="1.0" encoding="UTF-8"?>
<svg xmlns="http://www.w3.org/2000/svg" viewBox="0 0 72 72">
  <g id="au" data-name="Aha!">
    <path d="m13.63,40.71l-.99,4.43c0,.13-.13.2-.26.2h-4.76c-.07,0-.2-.07-.2-.13-.07-.07-.07-.13-.07-.2l6.29-19.06s.13-.33.53-.46c1.39-.26,3.57-.6,5.1-.86.33-.07.46.26.46.26l6.15,20.25c0,.07,0,.13-.07.2-.07.07-.13.07-.2.07h-2.78c-.73,0-2.18.07-2.71.07-.13,0-.26-.07-.26-.2l-.99-4.5-5.23-.07Zm4.43-3.9c-.4-1.59-.99-4.43-1.59-6.88-.4,1.72-1.32,5.23-1.79,6.88h3.37Zm14.1-4.7c3.37-2.32,6.22-1.79,7.61-.4,1.65,1.72.73,3.97,1.26,13.43,0,.07,0,.13-.07.2-.07.07-.13.07-.2.07-.53,0-1.52-.07-1.99-.07-.79,0-2.45.07-3.11.07-.07,0-.13,0-.2-.07s-.07-.13-.07-.2c.07-9.26.13-10.52-1.52-10.52-.6,0-1.06.26-1.59.46,0,4.76.07,6.15.26,9.99,0,.07,0,.13-.07.13-.07.07-.13.07-.13.07l-5.29.07c-.07,0-.13,0-.13-.07-.07-.07-.07-.13-.07-.13.13-13.83,0-16.68-.4-19.59-.2-.13.07-.13.07-.13,2.38-.33,2.58-.4,5.29-.93,0,0,.26,0,.26.33.07,2.05.07,7.28.07,7.28Zm18.13,11.85c-.99.73-2.91,1.72-4.5,1.72-2.45,0-3.97-1.79-3.97-4.43,0-4.1,4.83-5.29,8.27-5.76.07-.66.07-1.39-1.65-1.39s-3.18.53-4.7,1.12c-.07.07-.2,0-.26,0-.07-.07-.13-.13-.13-.26l.13-3.18c0-.13.07-.2.2-.26,3.11-.93,8.4-1.65,10.59.4,1.39,1.26,1.32,2.85,1.26,5.49-.07,3.84,0,4.9.2,7.74,0,.07,0,.13-.07.2-.07.07-.13.07-.2.07l-4.9.07c-.07,0-.13,0-.2-.07-.07-.07-.07-.13-.07-.2v-1.26Zm-.13-5.49c-1.26.13-3.18.26-3.18,1.92,0,1.46,1.59,1.92,3.18.93v-2.85Zm8.87.07c-.13,0-.26-.13-.26-.26-.33-7.21-.4-8.01-.79-12.51,0-.13.07-.26.26-.33l5.29-.86c.07,0,.2,0,.26.07s.07.13.07.26c-.33,3.24-.66,9.4-.73,13.3,0,.13-.13.26-.26.26,0,0-3.84.07-3.84.07Zm-.92,6.14s0-.04,0-.07c0-.9.02-1.82.03-2.62,0-.29,0-.59-.03-.88,0-.05,0-.09.02-.14,0-.15-.01-.3-.02-.46,0-.07,0-.13.07-.2.07-.07.13-.07.2-.07,1.34.13,3.69.07,4.76-.07.07,0,.13,0,.2.07.07.07.07.13.07.2,0,.18,0,.35,0,.53,0,.02,0,.04,0,.07v4.1c0,.07,0,.13-.07.2-.07.07-.13.07-.2.07-1.92-.07-3.11-.07-4.76.07-.07,0-.13,0-.2-.07-.07-.07-.07-.13-.07-.2,0-.18,0-.36,0-.54Z" fill="#0073cf" stroke-width="0"/>
  </g>
  <g id="ay" data-name="Rectangles">
    <rect x=".36" y=".36" width="71.28" height="71.28" fill="none" stroke-width="0"/>
  </g>
</svg>