<?xml version="1.0" encoding="UTF-8"?>
<svg xmlns="http://www.w3.org/2000/svg" viewBox="0 0 72 72">
  <g id="ai" data-name="DocuSign">
    <g>
      <path d="m12.79,30.65c.59,0,1.13.09,1.64.28.51.19.94.47,1.31.84.37.37.66.84.87,1.4.21.56.31,1.22.31,1.97,0,.66-.09,1.27-.25,1.83-.17.56-.43,1.04-.77,1.45-.34.41-.77.73-1.29.96-.51.23-1.12.35-1.82.35h-3.92v-9.1h3.92Zm-.14,7.42c.29,0,.57-.05.84-.14.27-.09.51-.25.73-.47.21-.22.38-.5.51-.85.13-.35.19-.77.19-1.27,0-.46-.04-.87-.13-1.24s-.24-.69-.44-.95c-.2-.26-.47-.47-.81-.61-.34-.14-.75-.21-1.24-.21h-1.43v5.73h1.78Z" fill="#231f20" stroke-width="0"/>
      <path d="m17.64,35.03c.16-.43.39-.79.69-1.1.3-.3.65-.54,1.07-.7.42-.17.88-.25,1.4-.25s.99.08,1.41.25c.42.17.78.4,1.08.7.3.3.53.67.69,1.1.16.43.24.91.24,1.43s-.08,1-.24,1.43c-.16.42-.39.79-.69,1.09-.3.3-.66.53-1.08.69-.42.16-.89.24-1.41.24s-.99-.08-1.4-.24c-.42-.16-.77-.39-1.07-.69-.3-.3-.53-.66-.69-1.09-.16-.42-.24-.9-.24-1.43s.08-1,.24-1.43Zm1.64,2.2c.05.25.14.48.26.68.12.2.29.36.49.48.2.12.46.18.76.18s.56-.06.77-.18c.21-.12.37-.28.5-.48.12-.2.21-.42.26-.68.05-.25.08-.51.08-.77s-.03-.52-.08-.78-.14-.48-.26-.68c-.12-.2-.29-.35-.5-.48-.21-.12-.47-.18-.77-.18s-.56.06-.76.18c-.2.12-.37.28-.49.48-.12.2-.21.42-.26.68-.05.25-.08.51-.08.78s.03.52.08.77Z" fill="#231f20" stroke-width="0"/>
      <path d="m28.03,34.34c-.29,0-.53.07-.73.2-.2.13-.35.3-.48.51-.12.21-.21.44-.26.69-.05.25-.08.5-.08.75s.03.48.08.73c.05.25.13.47.25.67.11.2.27.36.47.49.2.13.43.19.71.19.43,0,.77-.12,1-.36.23-.24.38-.57.44-.97h1.75c-.12.87-.46,1.54-1.02,2-.56.46-1.28.69-2.15.69-.49,0-.95-.08-1.36-.25-.41-.17-.76-.4-1.05-.69-.29-.3-.51-.65-.68-1.06-.16-.41-.24-.86-.24-1.36s.07-.98.22-1.42c.15-.44.37-.82.66-1.13.29-.32.64-.57,1.06-.75.42-.18.89-.27,1.43-.27.39,0,.77.05,1.13.15.36.1.68.26.97.47.28.21.52.47.69.78.18.31.28.68.31,1.1h-1.77c-.12-.76-.56-1.13-1.34-1.13Z" fill="#231f20" stroke-width="0"/>
      <path d="m36.14,39.75v-.92h-.04c-.23.38-.53.66-.89.83-.37.17-.74.25-1.12.25-.48,0-.88-.06-1.19-.19s-.55-.31-.73-.54c-.18-.23-.3-.52-.38-.85-.07-.34-.11-.71-.11-1.11v-4.05h1.81v3.72c0,.54.08.95.25,1.22.17.27.47.4.9.4.49,0,.85-.15,1.07-.44.22-.29.33-.77.33-1.45v-3.45h1.81v6.59h-1.72Z" fill="#231f20" stroke-width="0"/>
      <path d="m40.45,37.5c.11.21.26.38.44.52.18.13.4.23.64.29.25.06.5.1.76.1.18,0,.37-.01.57-.04.2-.03.39-.09.57-.17.18-.08.33-.2.45-.35.12-.15.18-.34.18-.57,0-.25-.08-.45-.24-.6-.16-.15-.36-.28-.62-.38s-.54-.19-.87-.27c-.32-.08-.65-.16-.98-.25-.34-.08-.67-.19-.99-.31-.32-.12-.61-.28-.87-.48-.25-.2-.46-.44-.62-.73-.16-.29-.24-.65-.24-1.06,0-.47.1-.87.3-1.22.2-.34.46-.63.78-.86.32-.23.69-.4,1.1-.51.41-.11.82-.17,1.22-.17.48,0,.93.05,1.37.16.44.11.83.28,1.17.52.34.24.61.54.81.91.2.37.3.82.3,1.34h-1.94c-.02-.27-.07-.5-.17-.68-.1-.18-.23-.32-.39-.42-.16-.1-.35-.17-.55-.22-.21-.04-.44-.06-.68-.06-.16,0-.32.02-.48.05-.16.03-.31.09-.44.18-.13.09-.24.19-.32.32-.08.13-.13.29-.13.48,0,.18.03.32.1.43.07.11.2.21.4.31.2.09.48.19.83.28.35.09.81.21,1.38.36.17.03.41.1.71.18.3.09.6.23.9.43.3.2.55.46.77.78.22.33.32.75.32,1.26,0,.42-.08.8-.24,1.16-.16.36-.4.66-.72.92s-.71.46-1.18.61c-.47.14-1.02.22-1.64.22-.5,0-.99-.06-1.46-.18-.47-.12-.89-.32-1.25-.58-.36-.26-.65-.6-.86-1.01-.21-.41-.31-.89-.31-1.45h1.94c0,.31.06.56.17.78Z" fill="#231f20" stroke-width="0"/>
      <path d="m46.54,32.14v-1.49h1.81v1.49h-1.81Zm1.81,1.02v6.59h-1.81v-6.59h1.81Z" fill="#231f20" stroke-width="0"/>
      <path d="m55.49,40.23c-.07.34-.23.66-.47.95-.24.29-.58.54-1.03.75-.45.2-1.05.31-1.81.31-.32,0-.65-.04-.99-.12-.34-.08-.64-.21-.92-.38-.28-.17-.51-.39-.69-.66-.18-.27-.29-.59-.31-.96h1.8c.08.34.25.58.5.71.25.13.53.2.85.2.51,0,.88-.15,1.11-.46.23-.31.35-.69.34-1.16v-.87h-.03c-.2.35-.47.61-.83.77-.36.17-.74.25-1.14.25-.49,0-.92-.09-1.27-.26-.36-.17-.65-.41-.88-.71-.23-.3-.4-.65-.5-1.06-.11-.4-.16-.83-.16-1.28,0-.42.06-.83.18-1.23.12-.4.3-.74.54-1.04.24-.3.53-.54.89-.72.35-.18.76-.27,1.22-.27.43,0,.81.08,1.14.24s.6.43.82.82h.03v-.88h1.72v6.17c0,.26-.04.56-.11.9Zm-2.48-2.19c.2-.1.36-.24.48-.41.13-.17.22-.36.29-.58s.1-.44.1-.68c0-.27-.03-.53-.08-.77-.05-.24-.14-.46-.25-.64-.12-.19-.28-.34-.47-.45-.2-.11-.44-.17-.74-.17-.25,0-.47.05-.66.15-.18.1-.34.24-.46.41-.12.17-.21.37-.27.6-.06.23-.08.46-.08.71s.02.47.07.71c.05.23.13.44.24.63.11.19.27.34.45.46.19.12.42.18.7.18.25,0,.48-.05.68-.15Z" fill="#231f20" stroke-width="0"/>
      <path d="m58.26,33.16v.92h.04c.23-.38.53-.66.89-.83.37-.17.74-.26,1.12-.26.48,0,.88.07,1.19.2.31.13.55.31.73.55s.3.52.38.85c.07.34.11.71.11,1.11v4.05h-1.81v-3.72c0-.54-.09-.95-.25-1.22-.17-.27-.47-.4-.9-.4-.49,0-.85.15-1.07.44-.22.29-.33.78-.33,1.45v3.45h-1.81v-6.59h1.72Z" fill="#231f20" stroke-width="0"/>
      <path d="m62.99,33.35c.04-.09.1-.17.16-.23.07-.06.15-.11.24-.15s.18-.05.28-.05.19.02.28.05c.09.03.17.08.24.15.07.06.12.14.16.23.04.09.06.19.06.3s-.02.21-.06.3c-.04.09-.1.17-.16.23-.07.06-.15.11-.24.15-.09.03-.18.05-.28.05s-.19-.02-.28-.05-.17-.08-.24-.15c-.07-.06-.12-.14-.16-.23-.04-.09-.06-.19-.06-.3s.02-.21.06-.3Zm.18.53c.03.07.07.13.12.18.05.05.11.09.17.12.07.03.14.04.22.04s.15-.01.21-.04c.07-.03.13-.07.17-.12.05-.05.09-.11.12-.18.03-.07.04-.15.04-.23s-.01-.16-.04-.23c-.03-.07-.07-.13-.12-.18s-.11-.09-.17-.12-.14-.04-.21-.04-.15.01-.22.04-.13.07-.17.12c-.05.05-.09.11-.12.18-.03.07-.04.15-.04.23s.01.16.04.23Zm.52-.64c.1,0,.18.02.24.05.06.04.08.1.08.19,0,.04,0,.07-.02.1-.01.03-.03.05-.05.07-.02.02-.04.03-.07.04-.03,0-.05.01-.08.02l.22.36h-.17l-.2-.35h-.1v.35h-.16v-.82h.31Zm0,.34s.09,0,.12-.02c.03-.01.04-.04.04-.09,0-.02,0-.04-.02-.05s-.02-.02-.04-.03c-.02,0-.03-.01-.05-.01-.02,0-.04,0-.06,0h-.14v.21h.14Z" fill="#231f20" stroke-width="0"/>
    </g>
  </g>
  <g id="ay" data-name="Rectangles">
    <rect x=".5" y=".36" width="71.28" height="71.28" fill="none" stroke-width="0"/>
  </g>
</svg>