<?xml version="1.0" encoding="UTF-8"?>
<svg xmlns="http://www.w3.org/2000/svg" viewBox="0 0 72 72">
  <g id="al" data-name="BreezyHR">
    <path d="m9.45,36.01c-.01,14.64,11.9,26.57,26.54,26.57,14.57,0,26.51-11.88,26.53-26.42.02-14.68-11.83-26.61-26.46-26.65-14.64-.03-26.6,11.87-26.61,26.5Z" fill="#3a60ac" stroke-width="0"/>
    <path d="m50.6,34.85c-.85-.67-2.26-1.29-2.93-1.47,0-4.55-3.9-8.74-9.27-9.4-4.71-.58-8.25,1.55-10.63,5.73-.2.02-.37.04-.54.06-5.05.58-8.43,4.56-8.17,9.62.24,4.56,4.23,8.18,9.08,8.19,5.99.02,11.98.02,17.97,0,3.04-.01,5.71-1.95,6.73-4.84,1-2.81.13-6.02-2.25-7.9Zm.68,6.15c-.19,2.37-2.24,4.39-4.73,4.67-.32.04-.65.06-.97.06-5.59,0-11.19,0-16.78,0-1.33,0-2.64-.12-3.87-.72-2.89-1.4-4.5-4.63-3.84-7.72.7-3.25,3.43-5.49,6.69-5.63,1.81-.08,3.31.39,4.33,1.96.85,1.3.74,3.07-.22,4.37-.93,1.26-2.34,1.75-3.91,1.35-.12-.03-.24-.08-.36-.1-.53-.08-1.11-.2-1.29.51-.16.64.32.93.83,1.14,2.83,1.15,6.13-.62,6.96-3.74.8-3.01-.72-5.86-3.65-6.87-.18-.06-.36-.13-.6-.22,1.39-2.85,4.96-4.73,8.48-4.16,4.96.8,7.23,4.1,7.55,8.97.54.15,1.04.28,1.54.42,2.56.77,4.06,3,3.84,5.71Z" fill="#fff" stroke-width="0"/>
  </g>
  <g id="ay" data-name="Rectangles">
    <rect x=".36" y=".36" width="71.28" height="71.28" fill="none" stroke-width="0"/>
  </g>
</svg>