<?xml version="1.0" encoding="UTF-8"?>
<svg xmlns="http://www.w3.org/2000/svg" viewBox="0 0 72 72">
  <g id="an" data-name="BOMGAR">
    <rect x="8.98" y="20.5" width="54.13" height="30.85" fill="#f15723" stroke-width="0"/>
    <g>
      <path d="m16.89,32.64h1.23c.49,0,.87.06,1.14.18.27.12.47.3.63.54.15.24.23.51.23.81,0,.28-.07.53-.2.76-.13.23-.33.41-.59.55.32.11.57.24.75.39s.31.33.41.54c.1.21.15.44.15.68,0,.5-.18.92-.55,1.27-.37.35-.86.52-1.47.52h-1.71v-6.22Zm.61.61v1.99h.36c.43,0,.75-.04.95-.12.2-.08.36-.21.48-.38s.18-.37.18-.58c0-.28-.1-.51-.3-.67-.2-.16-.52-.24-.95-.24h-.72Zm0,2.62v2.39h.77c.45,0,.79-.04,1-.13.21-.09.38-.23.51-.42.13-.19.19-.39.19-.61,0-.28-.09-.52-.27-.72-.18-.21-.43-.35-.75-.42-.21-.05-.58-.08-1.11-.08h-.35Z" fill="#fff" stroke-width="0"/>
      <path d="m24.72,32.49c.94,0,1.73.31,2.37.94.64.63.95,1.4.95,2.32s-.32,1.68-.95,2.32c-.63.63-1.41.95-2.32.95s-1.7-.32-2.34-.95c-.64-.63-.95-1.4-.95-2.29,0-.6.14-1.15.43-1.66.29-.51.68-.91,1.18-1.2.5-.29,1.04-.43,1.62-.43Zm.03.61c-.46,0-.9.12-1.31.36s-.73.56-.97.97c-.23.41-.35.86-.35,1.36,0,.74.26,1.36.77,1.87.51.51,1.13.76,1.85.76.48,0,.93-.12,1.34-.35.41-.23.73-.55.96-.96s.35-.86.35-1.36-.12-.94-.35-1.34-.55-.72-.97-.96-.86-.36-1.33-.36Z" fill="#fff" stroke-width="0"/>
      <path d="m28.9,38.87l.89-6.22h.1l2.53,5.11,2.51-5.11h.1l.9,6.22h-.61l-.62-4.45-2.2,4.45h-.16l-2.23-4.49-.61,4.49h-.6Z" fill="#fff" stroke-width="0"/>
      <path d="m42.98,33.69l-.48.46c-.35-.34-.73-.6-1.14-.78-.41-.18-.82-.26-1.21-.26-.49,0-.95.12-1.39.36-.44.24-.78.56-1.03.98-.24.41-.36.84-.36,1.3s.13.91.38,1.34c.25.42.6.75,1.04.99.44.24.93.36,1.46.36.64,0,1.18-.18,1.62-.54.44-.36.71-.83.79-1.4h-1.98v-.6h2.68c0,.96-.29,1.73-.86,2.29-.57.57-1.32.85-2.27.85-1.15,0-2.06-.39-2.73-1.18-.52-.6-.77-1.3-.77-2.09,0-.59.15-1.14.44-1.65s.7-.9,1.22-1.19c.52-.29,1.1-.43,1.75-.43.53,0,1.02.1,1.49.29s.92.5,1.36.92Z" fill="#fff" stroke-width="0"/>
      <path d="m46.97,32.64l2.9,6.22h-.67l-.98-2.05h-2.68l-.97,2.05h-.69l2.94-6.22h.15Zm-.15,1.32l-1.07,2.25h2.13l-1.06-2.25Z" fill="#fff" stroke-width="0"/>
      <path d="m50.75,32.64h1.24c.69,0,1.16.03,1.4.08.37.08.67.27.9.54s.35.62.35,1.03c0,.34-.08.64-.24.89-.16.26-.39.45-.68.58-.3.13-.71.2-1.23.2l2.24,2.89h-.77l-2.24-2.89h-.35v2.89h-.62v-6.22Zm.62.61v2.12h1.07c.42,0,.72-.03.92-.11.2-.08.35-.21.47-.38.11-.17.17-.37.17-.58s-.06-.4-.17-.57c-.11-.17-.26-.29-.44-.37-.18-.07-.49-.11-.92-.11h-1.1Z" fill="#fff" stroke-width="0"/>
      <path d="m55.91,32.68v.12h-.26v.63h-.13v-.63h-.26v-.12h.66Zm1.04,0v.75h-.13v-.61l-.28.61h-.09l-.27-.61v.61h-.13v-.75h.21l.23.52.24-.52h.21Z" fill="#fff" stroke-width="0"/>
    </g>
  </g>
  <g id="ay" data-name="Rectangles">
    <rect x=".36" y=".36" width="71.28" height="71.28" fill="none" stroke-width="0"/>
  </g>
</svg>