<?xml version="1.0" encoding="UTF-8"?>
<svg xmlns="http://www.w3.org/2000/svg" viewBox="0 0 72 72">
  <g id="ap" data-name="BambooHR">
    <g>
      <path d="m40.67,47.06c-3.49,0-6.44-2.75-6.44-6.44s2.49-6.72,6.5-6.72,6.38,3.25,6.38,6.65c0,3.7-2.5,6.5-6.44,6.5Zm-10.29-12.21l-1.23-4.04c-.74-2.12-.95-3.35-3.03-5.54-.71-.75-3.4-2.4-3.06-2.04,3.41,3.68,5.15,8.13,5.82,9.37-.62-.75-1.34-1.42-2.17-2.26-.7-.71-1.44-1.36-2.13-1.79-.46-.28-.72-.44-1.18-.68-2.1-1.09-4.13-1.75-4.91-1.95-.95-.24-1.89-.3-1.89-.3,0,0,3.04,2.57,4.34,4.2,1.3,1.63,2.63,3.1,4.1,3.7,1.47.6,1.98.77,3.14.95,1,.15,2.21.38,2.21.38Zm10.57-3.58c-3.22,0-4.94,1.1-6.15,2.3l-.33.35v-10.78h-2.78v17.64c0,5.43,4.18,8.81,8.98,8.81,5.28,0,9.28-4.07,9.28-9.29,0-4.85-4.17-9.02-9-9.02Zm22.16,4.7c0,14.92-12.1,27.02-27.02,27.02s-27.02-12.1-27.02-27.02,12.1-27.02,27.02-27.02,27.02,12.1,27.02,27.02Z" fill="#73c41d" fill-rule="evenodd" stroke-width="0"/>
      <path d="m58.21,56.46v.38h-.66v1.78h-.46v-1.78h-.66v-.38h1.77Zm1.51,1.18s.03.07.04.1c.01.03.02.06.03.1.01-.03.02-.07.03-.1,0-.03.02-.06.04-.1l.62-1.11s.04-.05.06-.06c.02,0,.05-.01.09-.01h.39v2.16h-.4v-1.33l.03-.27-.67,1.23c-.03.07-.09.1-.16.1h-.07c-.08,0-.13-.03-.16-.1l-.67-1.21.03.26v1.33h-.4v-2.16h.39s.07,0,.09.01c.02,0,.04.03.07.06l.62,1.11Z" fill="#73c41d" stroke-width="0"/>
    </g>
  </g>
  <g id="ay" data-name="Rectangles">
    <rect x=".36" y=".36" width="71.28" height="71.28" fill="none" stroke-width="0"/>
  </g>
</svg>