<?xml version="1.0" encoding="UTF-8"?>
<svg xmlns="http://www.w3.org/2000/svg" viewBox="0 0 72 72">
  <g id="ao" data-name="Birst">
    <path d="m11.63,35.54c-.07-.03-.13-.06-.2-.1-2.68-1.37-5.5.75-5.55,3.35,0,.43.14.79.49,1.04.78.57,1.73.09,1.84-.92.15-1.37,1.1-2.44,2.44-2.7.27-.05.56-.04.84-.05-.05.14-.11.19-.18.23-2.46,1.6-2.12,5.01.11,6.43.6.38,1.34.25,1.71-.28.38-.54.23-1.18-.37-1.63-.07-.05-.14-.1-.21-.16-1.1-.91-1.42-2.46-.77-3.7.04-.08.1-.14.19-.26.04.26.06.45.09.63.55,2.9,3.73,3.74,5.71,2.59.57-.33.76-1.03.47-1.6-.27-.52-.89-.72-1.5-.48-.09.04-.18.08-.28.12-1.31.51-2.81.05-3.6-1.1-.07-.1-.12-.2-.23-.4.21.09.31.13.41.17,2.44,1.09,5.35-.8,5.34-3.47,0-.69-.46-1.21-1.1-1.25-.68-.04-1.13.39-1.22,1.14-.15,1.25-.83,2.12-2.01,2.58-.32.12-.68.15-1.02.22-.01-.04-.02-.08-.03-.12.09-.07.17-.13.26-.2,2.35-1.76,1.77-5.07-.37-6.34-.43-.26-.89-.25-1.32.03-.4.26-.53.64-.49,1.1.04.4.3.64.6.86.96.73,1.36,1.7,1.22,2.89-.05.44-.21.84-.54,1.28-.02-.17-.03-.23-.04-.29-.14-2.89-3.18-4.34-5.59-3.18-.69.33-.95,1.03-.65,1.65.28.58.91.76,1.61.47.58-.25,1.17-.35,1.8-.23.99.2,1.73.73,2.13,1.69Z" fill="#f05927" stroke-width="0"/>
    <path d="m56.48,34.01c-.05-.05-.08-.08-.11-.09-.07-.03-.14-.06-.21-.08-1.79-.61-3.64-.83-5.52-.69-.93.07-1.84.27-2.62.84-1.36.99-1.26,2.98.22,3.77.49.26,1.05.45,1.6.5,1.04.1,2.1.08,3.15.13.4.02.8.07,1.19.15.28.06.49.25.52.57.03.34-.15.55-.44.67-.19.08-.4.15-.61.18-1.29.18-2.58.14-3.85-.12-.73-.15-1.45-.37-2.2-.57-.29.54-.59,1.1-.91,1.68.21.09.37.18.55.24,1.98.72,4.03.9,6.11.74.86-.07,1.69-.26,2.43-.73.92-.57,1.27-1.42,1.14-2.47-.11-.96-.68-1.58-1.57-1.86-.6-.19-1.24-.3-1.87-.34-.82-.06-1.66,0-2.48-.03-.42-.02-.85-.07-1.25-.2-.18-.06-.39-.32-.4-.5,0-.18.19-.42.36-.54.2-.13.47-.17.71-.2,1.51-.19,3-.01,4.48.34.3.07.6.15.91.23.24-.56.46-1.09.69-1.61Z" fill="#5c5a5e" stroke-width="0"/>
    <path d="m65.39,33.27h-3.67v-2.98h-2.21v2.99h-2.16v1.89h2.16c0,.19,0,.32,0,.46,0,1.11-.01,2.22,0,3.34.01,1.52.79,2.54,2.28,2.83.81.15,1.89.17,2.5.11s1.12-.2,1.73-.31c-.15-.66-.28-1.24-.39-1.72-.93.06-1.79.17-2.65.16-.84-.01-1.24-.49-1.25-1.32,0-1.05,0-2.1,0-3.15,0-.12.01-.24.03-.41h3.64v-1.87Z" fill="#5c5a5e" stroke-width="0"/>
    <path d="m39.01,33.3v8.48h2.23c0-.17,0-.32,0-.47,0-1.27,0-2.55-.02-3.82,0-.41.13-.68.43-.94,1-.86,2.2-1.21,3.48-1.35.34-.04.69-.06,1.03-.09v-1.84c-1.81,0-3.44.44-4.94,1.6v-1.58h-2.2Z" fill="#5c5a5e" stroke-width="0"/>
    <path d="m37.26,33.3h-2.2v8.48h2.2v-8.48Z" fill="#5c5a5e" stroke-width="0"/>
    <path d="m36.15,32.13c.67,0,1.19-.52,1.19-1.19,0-.67-.53-1.19-1.19-1.18-.67,0-1.19.52-1.19,1.19,0,.67.51,1.18,1.19,1.18Z" fill="#5c5a5e" stroke-width="0"/>
    <path d="m30.85,33.53c-1.83-.7-3.66-.57-5.43.3-.11.05-.21.1-.39.2v-3.73h-2.19v10.61c.24.11.47.21.7.3,1.63.62,3.32.83,5.06.73.87-.05,1.71-.25,2.5-.64,1.68-.83,2.58-2.16,2.53-4.04-.05-1.85-1.09-3.08-2.78-3.73Zm-.28,5.66c-.53.46-1.15.71-1.83.8-1.2.17-2.37.03-3.5-.45-.07-.03-.13-.07-.21-.12v-3.27c1.25-1.23,3.74-1.56,5.24-.7,1.36.79,1.52,2.67.3,3.72Z" fill="#5c5a5e" stroke-width="0"/>
  </g>
  <g id="ay" data-name="Rectangles">
    <rect x=".36" y=".36" width="71.28" height="71.28" fill="none" stroke-width="0"/>
  </g>
</svg>