<?xml version="1.0" encoding="UTF-8"?>
<svg xmlns="http://www.w3.org/2000/svg" viewBox="0 0 72 72">
  <g id="aj" data-name="citrix">
    <g>
      <path d="m9.15,38.51c0-4.01,2.69-6.8,6.52-6.8,2.59,0,4.69,1.29,5.53,3.3.09.18.13.38.13.58,0,.42-.34.76-.76.76-.02,0-.04,0-.05,0-.38,0-.7-.25-.81-.61-.66-1.62-2.15-2.56-4.03-2.56-2.87,0-4.87,2.18-4.87,5.33s1.98,5.3,4.87,5.3c1.88,0,3.3-.91,4.06-2.81.1-.36.42-.6.79-.61.44,0,.81.35.81.79,0,0,0,.01,0,.02,0,.18-.04.36-.1.53-.81,2.18-2.89,3.58-5.55,3.58-3.86,0-6.52-2.79-6.52-6.8Z" stroke-width="0"/>
      <path d="m30.9,44.19c0,.56-.3.91-.84.91s-.81-.36-.81-.91v-15.73c0-.58.3-.91.84-.91s.81.33.81.91v3.58h2.84c.51,0,.81.28.81.74s-.3.74-.81.74h-2.84v10.68Z" stroke-width="0"/>
      <path d="m43.61,32.93c.01.42-.32.78-.74.79-.02,0-.04,0-.07,0-.21,0-.42-.07-.61-.18-.41-.19-.86-.29-1.32-.28-1.75,0-2.89,1.52-2.89,3.45v7.48c0,.58-.28.91-.81.91s-.84-.33-.84-.91v-11.36c0-.58.3-.91.84-.91s.81.33.81.91v.33c.74-.94,1.87-1.48,3.07-1.45.74-.04,1.48.14,2.13.51.26.14.43.41.43.71Z" stroke-width="0"/>
      <path d="m45.28,32.83c0-.58.3-.91.84-.91s.81.33.81.91v11.36c0,.56-.3.91-.84.91s-.81-.36-.81-.91v-11.36Z" stroke-width="0"/>
      <g>
        <path d="m24.22,32.83c0-.58.3-.91.84-.91s.81.33.81.91v11.36c0,.56-.3.91-.84.91s-.81-.36-.81-.91v-11.36Z" stroke-width="0"/>
        <circle cx="25.04" cy="28.84" r="1.3" stroke-width="0"/>
      </g>
      <path d="m55.5,39.53l-4.49,5.25c-.15.21-.4.33-.66.33-.42,0-.78-.33-.79-.75,0,0,0,0,0,0,0-.22.08-.42.23-.58l4.69-5.3-4.51-5.17c-.17-.16-.27-.38-.28-.61,0-.43.36-.77.79-.76,0,0,.02,0,.02,0,.25,0,.49.13.63.33l4.36,5.12,4.36-5.12c.15-.2.38-.33.63-.33.43-.02.79.31.81.74,0,0,0,.02,0,.02-.01.23-.11.45-.28.61l-4.51,5.17,4.69,5.3c.15.16.23.37.23.58,0,.42-.35.77-.78.76,0,0,0,0,0,0-.26,0-.51-.12-.66-.33l-4.49-5.25Z" stroke-width="0"/>
      <circle cx="55.5" cy="28.84" r="1.3" stroke-width="0"/>
    </g>
    <path d="m64.62,45.11c-.17,0-.35-.03-.51-.1-.31-.13-.56-.38-.69-.69-.14-.32-.14-.69,0-1.01.07-.15.16-.29.28-.41.12-.12.26-.21.41-.28.32-.14.69-.14,1.01,0,.15.07.29.16.41.28.37.37.48.93.28,1.42-.06.15-.16.29-.28.41-.12.12-.26.21-.41.28-.16.07-.33.1-.5.1Zm0-.17c.15,0,.3-.03.44-.09.13-.06.25-.14.34-.24.1-.1.17-.22.23-.36.11-.28.11-.6,0-.89-.05-.13-.13-.25-.23-.36-.1-.1-.21-.18-.34-.24-.14-.06-.29-.09-.44-.09-.15,0-.3.03-.44.09-.13.06-.25.14-.35.24-.1.1-.18.22-.23.36-.11.28-.11.6,0,.89.05.13.13.25.23.36.1.1.22.18.35.24.14.06.29.09.44.09Zm.65-.4h-.21l-.41-.67h-.32v.67h-.18v-1.45h.63c.14-.01.28.02.4.1.08.07.12.17.11.28,0,.06-.01.12-.03.18-.02.05-.05.09-.1.12-.04.03-.09.06-.15.07-.06.02-.12.02-.18.03l.44.67Zm-.68-.81h.16c.06,0,.11,0,.17-.02.05-.01.09-.04.13-.08.04-.05.05-.11.05-.16,0-.05,0-.09-.03-.13-.02-.03-.05-.06-.08-.08-.04-.02-.08-.03-.12-.03-.04,0-.09,0-.13,0h-.41v.51h.27Z" stroke-width="0"/>
  </g>
  <g id="ay" data-name="Rectangles">
    <rect x=".5" y=".36" width="71.28" height="71.28" fill="none" stroke-width="0"/>
  </g>
</svg>