<?xml version="1.0" encoding="UTF-8"?>
<svg xmlns="http://www.w3.org/2000/svg" viewBox="0 0 72 72">
  <g id="aq" data-name="AWS">
    <path d="m32.82,32.29c.63-2.69,1.27-5.38,1.9-8.07.3-1.29.6-2.59.91-3.88.03-.14.08-.28.13-.42.1-.28.29-.48.6-.49.73-.02,1.45-.04,2.18-.02.37.01.58.28.67.63.14.53.27,1.06.4,1.59.81,3.45,1.62,6.91,2.44,10.36.04.17.09.34.17.63.37-1.41.7-2.71,1.04-4.01.7-2.71,1.4-5.43,2.09-8.14,0-.04.02-.07.03-.11.24-.82.45-.98,1.33-.98.46,0,.91-.01,1.37,0,.46.02.59.16.54.61-.02.2-.07.39-.13.58-1.46,4.71-2.93,9.42-4.4,14.13-.02.07-.05.14-.07.21-.23.68-.45.84-1.16.84-.49,0-.98,0-1.48,0-.68,0-.91-.18-1.07-.85-.48-1.98-.95-3.96-1.43-5.94-.44-1.82-.87-3.64-1.31-5.47-.03-.12-.08-.24-.16-.49-.19.76-.35,1.4-.5,2.04-.76,3.18-1.52,6.37-2.29,9.56-.02.07-.02.14-.04.21-.2.76-.41.92-1.19.93-.46,0-.91,0-1.37,0-.72,0-.94-.15-1.16-.84-.37-1.14-.71-2.29-1.06-3.44-1.09-3.59-2.18-7.17-3.27-10.76-.07-.23-.13-.46-.16-.69-.07-.46.05-.62.5-.63.6-.01,1.2,0,1.8,0,.45,0,.76.22.88.67.22.83.44,1.65.65,2.48.8,3.16,1.6,6.31,2.4,9.47.03.1.06.2.1.3.03,0,.06,0,.09,0Z" fill="#252f3e" stroke-width="0"/>
    <path d="m36.36,52.07c-5.39,0-10.56-1.37-13.47-2.39-4.12-1.45-7.91-3.53-11.35-6.22-.7-.55-1.37-1.14-2.06-1.71-.1-.08-.19-.17-.28-.27-.15-.16-.23-.33-.1-.54.12-.2.31-.26.57-.14.38.18.75.38,1.11.58,2.87,1.6,5.88,2.89,8.99,3.92,2.09.69,8.28,2.73,16.22,2.73,5.16,0,10.32-.57,13.67-1.38,2.82-.68,5.56-1.56,8.24-2.66.23-.1.48-.18.73-.21.31-.04.58.08.72.38.14.29.08.57-.13.81-.11.12-.24.22-.37.32-1.68,1.23-3.49,2.23-5.39,3.09-2.09.95-3.77,1.63-6.48,2.27s-5.24,1.42-10.63,1.42Z" fill="#f90" stroke-width="0"/>
    <path d="m21.55,26.56c.03-1.09.06-2.14-.25-3.17-.36-1.22-1.28-1.69-2.44-1.86-1.65-.25-3.22.09-4.76.64-.38.14-.75.29-1.13.4-.35.1-.54-.02-.56-.38-.02-.45-.01-.91,0-1.37,0-.31.21-.5.47-.62.43-.2.85-.41,1.3-.57,2.02-.7,4.08-.92,6.19-.5,1.26.25,2.39.77,3.16,1.87.5.72.79,1.52.9,2.38.08.58.11,1.16.12,1.74.02,1.55,0,3.1.01,4.65,0,.71.05,1.42.1,2.13.05.63.32,1.19.59,1.75.39.8.36.93-.37,1.43-.26.17-.51.35-.77.51-.56.35-.85.32-1.27-.21-.28-.35-.51-.75-.76-1.13-.12-.18-.21-.38-.32-.59-.39.35-.73.7-1.11,1.01-1.8,1.41-3.83,1.81-6.03,1.26-1.87-.47-3.14-2.04-3.3-3.98-.11-1.31.07-2.55.88-3.63.86-1.15,2.04-1.79,3.43-2.08,1.19-.25,2.39-.23,3.59-.05.68.1,1.36.24,2.04.36.07.01.14,0,.3,0Zm.02,2.17c-.06-.04-.08-.07-.12-.08-1.48-.35-2.98-.55-4.49-.32-1.67.25-2.58,1.39-2.47,3.04.09,1.46.98,2.24,2.14,2.35,1.08.11,2.11-.09,3.06-.61.77-.42,1.38-1.02,1.66-1.88.26-.82.29-1.68.23-2.51Z" fill="#252f3e" stroke-width="0"/>
    <path d="m55.36,36.21c-1.36.01-2.76-.27-4.12-.78-1.12-.42-1.29-.67-1.28-1.86,0-.18,0-.37.03-.54.06-.33.22-.43.54-.37.18.03.35.09.52.16,1.35.61,2.77.89,4.24.92.69,0,1.39-.02,2.05-.27.34-.13.67-.29.96-.5.99-.73,1.09-2.54-.2-3.24-.48-.26-.99-.47-1.5-.64-.93-.32-1.87-.59-2.81-.89-.68-.22-1.31-.53-1.89-.97-1.5-1.14-2.14-3.17-1.52-4.94.39-1.12,1.17-1.91,2.18-2.5.9-.53,1.88-.78,2.91-.86,1.45-.11,2.87.1,4.25.56,1.31.44,1.61.92,1.46,2.28-.06.49-.27.63-.75.47-.21-.07-.4-.17-.61-.25-1.56-.63-3.18-.75-4.83-.46-.25.04-.49.13-.72.24-.66.32-1.03.84-1.08,1.59-.05.76.23,1.38.89,1.75.57.31,1.18.57,1.79.79.91.33,1.85.56,2.75.9.59.22,1.18.49,1.71.84,1.14.76,1.68,1.87,1.74,3.23.1,2.3-1.33,4.01-3.31,4.78-1.01.39-2.06.57-3.42.56Z" fill="#252f3e" stroke-width="0"/>
    <path d="m54.15,41.96c-.15-.3.15-.6.39-.74.55-.31,1.12-.61,1.71-.85,1.09-.43,3.54-.99,6.92-.43.84.19,1.19.27,1.17,1.51-.03,1.32-.34,2.59-.8,3.82-.55,1.46-1.31,2.8-2.41,3.92-.14.14-.3.27-.45.39-.16.13-.36.23-.54.08-.17-.13-.09-.33-.02-.5.31-.8.62-1.59.91-2.4.37-1.04.69-2.11.85-3.21.02-.14.02-.29.02-.44,0-.71-.28-1.1-.97-1.25-.53-.12-2.31-.29-4.5-.04-.6.07-2.1.42-2.25.12Z" fill="#f90" stroke-width="0"/>
  </g>
  <g id="ay" data-name="Rectangles">
    <rect x=".36" y=".36" width="71.28" height="71.28" fill="none" stroke-width="0"/>
  </g>
</svg>