<?xml version="1.0" encoding="UTF-8"?>
<svg xmlns="http://www.w3.org/2000/svg" viewBox="0 0 72 72">
  <g id="am" data-name="Box">
    <g>
      <path d="m56.99,40.14l5.44-6.58c.73-.88.61-2.18-.27-2.91-.88-.73-2.18-.61-2.91.27l-4.94,5.97-4.94-5.97c-.73-.88-2.03-1-2.91-.27-.88.73-1,2.03-.27,2.91l5.44,6.58-5.44,6.58c-.73.88-.61,2.18.27,2.91.88.73,2.18.61,2.91-.27l4.94-5.97,4.94,5.97c.73.88,2.03,1,2.91.27.88-.73,1-2.03.27-2.91l-5.44-6.58Z" fill="#084cce" stroke-width="0"/>
      <path d="m36.95,30.19c-3.68,0-6.9,1.98-8.64,4.94-1.75-2.95-4.96-4.94-8.64-4.94-2.21,0-4.25.72-5.91,1.93v-8.15c0-1.14-.93-2.07-2.07-2.07s-2.06.93-2.06,2.07v16.26c0,5.54,4.5,10.03,10.04,10.03,3.68,0,6.9-1.98,8.64-4.94,1.75,2.95,4.96,4.94,8.64,4.94,5.54,0,10.03-4.49,10.03-10.03s-4.49-10.03-10.03-10.03Zm-17.28,15.93c-3.26,0-5.9-2.64-5.9-5.9s2.64-5.9,5.9-5.9,5.9,2.64,5.9,5.9-2.64,5.9-5.9,5.9Zm17.28,0c-3.26,0-5.9-2.64-5.9-5.9s2.64-5.9,5.9-5.9,5.9,2.64,5.9,5.9-2.64,5.9-5.9,5.9Z" fill="#084cce" stroke-width="0"/>
    </g>
  </g>
  <g id="ay" data-name="Rectangles">
    <rect x=".36" y=".36" width="71.28" height="71.28" fill="none" stroke-width="0"/>
  </g>
</svg>