<?xml version="1.0" encoding="UTF-8"?>
<svg xmlns="http://www.w3.org/2000/svg" viewBox="0 0 72 72">
  <g id="aw" data-name="Accellion">
    <path d="m51.41,60.81c1.08,0,1.92.84,1.92,1.88s-.84,1.89-1.93,1.89-1.94-.83-1.94-1.89.86-1.88,1.94-1.88h.01Zm-.02.38c-.83,0-1.45.68-1.45,1.5s.62,1.5,1.47,1.5c.83.01,1.43-.67,1.43-1.5s-.61-1.5-1.45-1.5h-.01Zm-.29,2.48h-.44v-1.87c.17-.03.41-.07.72-.07.36,0,.52.06.65.15.1.08.18.23.18.4,0,.22-.16.38-.39.45v.02c.18.06.29.21.34.46.06.29.09.4.14.46h-.47c-.06-.07-.09-.23-.15-.45-.03-.21-.15-.3-.39-.3h-.21v.75Zm.01-1.06h.21c.24,0,.44-.08.44-.28,0-.17-.13-.29-.4-.29-.11,0-.2.01-.24.02v.54Z" fill="#5779bc" stroke-width="0"/>
    <path d="m40.74,30.98l21.79-21.79c.31.34.5.79.5,1.28,0,.22-.04.44-.11.64l-18.56,52.32c-.28.68-.96,1.17-1.74,1.17-1.04,0-1.88-.84-1.88-1.88v-31.73" fill="#5779bc" stroke-width="0"/>
    <path d="m40.74,30.98l21.79-21.79c-.34-.37-.83-.6-1.38-.6-.21,0-.42.04-.61.1L8.35,27.33c-.72.26-1.24.96-1.24,1.77,0,1.04.84,1.88,1.88,1.88h31.73" fill="#fdb924" stroke-width="0"/>
  </g>
  <g id="ay" data-name="Rectangles">
    <rect x=".36" y=".36" width="71.28" height="71.28" fill="none" stroke-width="0"/>
  </g>
</svg>