<?xml version="1.0" encoding="UTF-8"?>
<svg xmlns="http://www.w3.org/2000/svg" viewBox="0 0 72 72">
  <g id="ax" data-name="4me">
    <g id="ay" data-name="Layer_1">
      <g id="az" data-name=" 2308577443248">
        <path d="m59.34,33.58c-.14-.94-.52-1.7-1.12-2.27-.6-.58-1.4-.87-2.39-.87s-1.79.28-2.4.85c-.61.57-1.01,1.33-1.19,2.29h7.1Zm-35.58-6.23h4.7v2.11c.27-.32.56-.62.88-.91.32-.28.67-.54,1.07-.76.39-.22.83-.4,1.31-.53.48-.13,1.02-.19,1.62-.19,1.09,0,2.03.2,2.83.61.79.41,1.41.99,1.84,1.75.72-.78,1.52-1.36,2.41-1.76.89-.4,1.89-.6,3.03-.6,1.75,0,3.12.46,4.11,1.38.62.57,1.04,1.31,1.27,2.22.31-.49.68-.93,1.1-1.34.72-.7,1.59-1.25,2.59-1.65,1-.4,2.11-.61,3.33-.61,1.38,0,2.58.22,3.6.66,1.01.44,1.86,1.03,2.53,1.78.67.74,1.17,1.6,1.49,2.56.32.96.48,1.97.48,3.02,0,.17,0,.34-.02.52-.01.18-.03.38-.05.58h-11.57c.23.96.7,1.68,1.41,2.16.71.49,1.6.73,2.65.73.79,0,1.49-.12,2.11-.36.62-.24,1.26-.62,1.92-1.16l2.7,2.12c-.79.86-1.74,1.54-2.85,2.03-1.12.49-2.43.73-3.94.73-1.24,0-2.39-.18-3.46-.55-1.06-.37-1.98-.89-2.76-1.57-.4-.35-.75-.73-1.06-1.15v2.94h-4.69v-8.22c0-.99-.24-1.74-.71-2.24-.47-.51-1.15-.76-2.04-.76s-1.58.25-2.08.76c-.5.5-.76,1.25-.76,2.24v8.22h-4.69v-8.22c0-.99-.24-1.74-.71-2.24-.47-.51-1.15-.76-2.04-.76s-1.58.25-2.08.76c-.5.5-.76,1.25-.76,2.24v8.22h-7.17v4.14h-4.05v-4.14H7.12v-3.03s10.51-11.74,10.51-11.74h3.65v11.3h2.47v-11.3h0Zm-6.53,11.3v-6.01l-5.13,6.01h5.13Z" fill="#062341" stroke-width="0"/>
        <path d="m65.44,27.07c.84,0,1.52.68,1.52,1.52s-.68,1.52-1.52,1.52-1.52-.68-1.52-1.52.68-1.52,1.52-1.52Zm0,.31c.67,0,1.21.54,1.21,1.21s-.54,1.22-1.21,1.22-1.22-.54-1.22-1.22.54-1.21,1.22-1.21Z" fill="#062341" fill-rule="evenodd" stroke-width="0"/>
        <path d="m66.21,29.38h-.41l-.25-.41s-.04-.06-.05-.08c-.02-.02-.03-.05-.05-.06-.02-.02-.04-.03-.05-.04-.02,0-.04-.01-.06-.01h-.1v.61h-.36v-1.6h.57c.39,0,.58.15.58.44,0,.06,0,.11-.03.15-.02.05-.04.09-.07.13-.03.04-.07.07-.11.1-.04.03-.09.05-.15.06h0s.05.02.07.04c.02.02.04.04.06.06.02.02.04.05.06.07.02.03.04.05.05.08l.3.47h0Zm-.98-1.33v.45h.16c.08,0,.14-.02.19-.07.05-.05.07-.1.07-.17,0-.14-.08-.21-.25-.21h-.16Z" fill="#062341" stroke-width="0"/>
      </g>
    </g>
  </g>
  <g id="ba" data-name="Rectangles">
    <rect x=".36" y=".36" width="71.28" height="71.28" fill="none" stroke-width="0"/>
  </g>
</svg>