<?xml version="1.0" encoding="UTF-8"?>
<svg xmlns="http://www.w3.org/2000/svg" viewBox="0 0 72 72">
  <g id="at" data-name="AlertOps">
    <g>
      <polygon points="30.3 39.06 42.16 39.06 36.23 28.95 30.3 39.06" fill="#f7a61b" stroke-width="0"/>
      <path d="m50.15,11.52h-28.13c-7.09,0-12.83,5.75-12.83,12.83v23.35c0,7.09,5.75,12.83,12.83,12.83h28.13c7.09,0,12.83-5.75,12.83-12.83v-23.35c0-7.09-5.75-12.83-12.83-12.83Zm-15.66,4.22c0-.96.78-1.74,1.74-1.74s1.74.78,1.74,1.74v3.82c0,.96-.78,1.74-1.74,1.74s-1.74-.78-1.74-1.74v-3.82Zm-17.62,22.1h-3.82c-.96,0-1.74-.78-1.74-1.74s.78-1.74,1.74-1.74h3.82c.96,0,1.74.78,1.74,1.74s-.78,1.74-1.74,1.74Zm21.11,18.62c0,.96-.78,1.74-1.74,1.74s-1.74-.78-1.74-1.74v-3.82c0-.96.78-1.74,1.74-1.74s1.74.78,1.74,1.74v3.82Zm11.86-8.15c-.86.57-1.92.47-2.37-.22l-3.28-5.6h-15.89l-3.28,5.6c-.45.69-1.51.78-2.37.22-.86-.57-1.19-1.58-.73-2.27l12.18-19.92c.44-.6,1.26-1,2.2-1s1.77.41,2.21,1.02l12.08,19.9c.45.69.12,1.7-.73,2.27Zm8.75-10.47h-3.82c-.96,0-1.74-.78-1.74-1.74s.78-1.74,1.74-1.74h3.82c.96,0,1.74.78,1.74,1.74s-.78,1.74-1.74,1.74Z" fill="#f7a61b" stroke-width="0"/>
    </g>
  </g>
  <g id="ay" data-name="Rectangles">
    <rect x=".36" y=".36" width="71.28" height="71.28" fill="none" stroke-width="0"/>
  </g>
</svg>