<?xml version="1.0" encoding="UTF-8"?>
<svg xmlns="http://www.w3.org/2000/svg" viewBox="0 0 72 72">
  <g id="ah" data-name="Domo">
    <g id="ai" data-name="Layer 1">
      <g>
        <rect x="9.16" y="9.32" width="53.57" height="53.57" fill="#9ce" stroke-width="0"/>
        <path d="m19.24,40.85c.83-.93,1.42-2.07,1.67-3.34.66,3.27,3.55,5.73,7.01,5.73s6.35-2.46,7.01-5.73v5.73h2.37v-8.56l4.78,4.78,4.76-4.78v8.55h2.41v-5.73c.66,3.27,3.55,5.73,7.01,5.73,2.85,0,5.3-1.66,6.45-4.07v-6.17c-1.15-2.41-3.61-4.07-6.45-4.07-3.46,0-6.35,2.46-7.01,5.73v-5.73l-7.17,7.15-7.15-7.15v5.73c-.66-3.27-3.55-5.73-7.01-5.73s-6.35,2.46-7.01,5.73c-.26-1.27-.85-2.41-1.67-3.34-1.31-1.47-3.22-2.39-5.34-2.39h-4.74v14.31h4.74c2.12,0,4.03-.92,5.34-2.39Zm37.03-9.54c2.64,0,4.77,2.14,4.77,4.77s-2.14,4.77-4.77,4.77-4.77-2.14-4.77-4.77,2.14-4.77,4.77-4.77Zm-28.35,0c2.64,0,4.77,2.14,4.77,4.77s-2.14,4.77-4.77,4.77-4.77-2.14-4.77-4.77c0-2.64,2.14-4.77,4.77-4.77Zm-16.39.01h2.68c2.49.16,4.46,2.23,4.46,4.76s-1.97,4.6-4.46,4.76h-2.68v-9.52Z" fill="#fff" stroke-width="0"/>
      </g>
    </g>
  </g>
  <g id="az" data-name="Rectangles">
    <rect x=".36" y=".36" width="71.28" height="71.28" fill="none" stroke-width="0"/>
  </g>
</svg>