<?xml version="1.0" encoding="UTF-8"?>
<svg xmlns="http://www.w3.org/2000/svg" viewBox="0 0 72 72">
  <g id="ac" data-name="Github">
    <path d="m36.12,9.47c-15.06,0-27.24,12.26-27.24,27.44,0,12.13,7.8,22.4,18.62,26.03,1.35.27,1.85-.59,1.85-1.32,0-.64-.04-2.82-.04-5.09-7.58,1.64-9.15-3.27-9.15-3.27-1.22-3.18-3.02-4-3.02-4-2.48-1.68.18-1.68.18-1.68,2.75.18,4.19,2.82,4.19,2.82,2.43,4.18,6.36,3,7.94,2.27.23-1.77.95-3,1.71-3.68-6.04-.64-12.4-3-12.4-13.54,0-3,1.08-5.45,2.8-7.36-.27-.68-1.22-3.5.27-7.27,0,0,2.3-.73,7.48,2.82,2.22-.6,4.51-.91,6.81-.91,2.3,0,4.64.32,6.81.91,5.19-3.54,7.49-2.82,7.49-2.82,1.49,3.77.54,6.59.27,7.27,1.76,1.91,2.8,4.36,2.8,7.36,0,10.54-6.36,12.86-12.45,13.54.99.86,1.85,2.5,1.85,5.09,0,3.68-.04,6.63-.04,7.54,0,.73.5,1.59,1.85,1.32,10.82-3.63,18.62-13.9,18.62-26.03.04-15.17-12.17-27.44-27.19-27.44Z" fill="#24292f" fill-rule="evenodd" stroke-width="0"/>
  </g>
  <g id="ay" data-name="Rectangles">
    <rect x=".36" y=".36" width="71.28" height="71.28" fill="none" stroke-width="0"/>
  </g>
</svg>