<?xml version="1.0" encoding="UTF-8"?>
<svg xmlns="http://www.w3.org/2000/svg" viewBox="0 0 72 72">
  <g id="x" data-name="Jive">
    <g id="y" data-name="Layer 1-2">
      <path d="m21.18,44.49h5.42v-11.18c-1.84-.14-3.64-.32-5.42-.5v11.68h0Zm-9.33.71c0,.77-.27,1.41-.73,1.89-.46.48-1.09.82-1.84.93l1.96,4.46c1.93-.43,3.46-1.18,4.48-2.25,1.05-1.07,1.57-2.44,1.57-4.07v-13.84c-1.89-.25-3.71-.52-5.44-.84v13.73h0Zm9.33-14.27c1.8.11,3.62.2,5.42.3v-4.26h-5.42v3.96h0Zm-9.33-.73c1.82.16,3.62.32,5.44.46v-3.69h-5.44v3.23h0Zm51.31,4.8c0-1.12-.16-2.32-.55-3.46-.32-.98-.82-1.93-1.55-2.71-.61-.71-1.41-1.32-2.37-1.68-.89-.36-1.93-.57-3.12-.57-2.55,0-4.58.98-6.01,2.48-.57.59-1.02,1.27-1.41,2,2.25-.16,4.53-.34,6.81-.59,1.87.02,3.57.52,3.64,2.69-3.6.36-7.42.61-11.4.73-.09.55-.16,1.12-.16,1.68-.02,2.39.8,4.78,2.5,6.49,1.46,1.5,3.62,2.5,6.49,2.57,1.21.05,2.41-.07,3.53-.25,1.21-.2,2.3-.55,3.12-.89v-.07l-2.73-3.55c-.52.16-1.07.27-1.64.32-.57.07-1.18.09-1.73.09-.64,0-1.25-.07-1.8-.25-.52-.16-1-.41-1.39-.73-.27-.23-.5-.5-.68-.8-.2-.3-.32-.64-.41-1.02l-.02-.11,10.79-.73c.07-.41.09-1.21.09-1.64h0Zm-26.86-3.57l-.48-1.5-.96-2.98h-5.87l1.66,4.42c1.3.02,2.6.07,3.89.07h1.75Zm5.12-4.48c-.48,1.53-.93,3-1.39,4.46-.27.84-.52,1.66-.8,2.48-.34,1.09-.71,2.16-1.07,3.26h-.05c-.07-.25-.16-.52-.23-.77-.07-.27-.16-.55-.25-.8l-.55-1.73c-.8-.02-1.62-.05-2.41-.09-1.07-.05-2.12-.09-3.19-.16l4.05,10.9h4.94l4.05-10.56,1.02-2.69,1.64-4.3h-5.78,0Z" fill="#074e99" stroke-width="0"/>
    </g>
  </g>
  <g id="az" data-name="Rectangles">
    <rect x=".36" y=".36" width="71.28" height="71.28" fill="none" stroke-width="0"/>
  </g>
</svg>