<?xml version="1.0" encoding="UTF-8"?>
<svg xmlns="http://www.w3.org/2000/svg" viewBox="0 0 72 72">
  <g id="w" data-name="LogMeIn">
    <path d="m13.75,38.97s-.08-.06-.17-.08c-.09-.02-.19-.03-.28-.03-.1,0-2.81,0-3.01,0s-.32-.06-.38-.18c-.02-.05-.03-.1-.03-.16,0-.06,0-.12,0-.19v-.14c0-.08-.01-.11,0-.18,0-.07,0-.16,0-.24v-6.55c0-.11-.02-.19-.07-.25-.05-.06-.12-.1-.21-.1-.1,0-1.51,0-1.57,0-.08,0-.18.07-.22.14-.03.06-.05.13-.05.19,0,.08,0,8.98,0,9.07s.02.16.06.21c.05.07.13.12.21.13.1.01,5.38.02,5.47.02s.16-.02.21-.06c.06-.03.11-.09.14-.15.02-.05.03-.11.02-.16,0-.06,0-1.02,0-1.1,0-.07-.02-.15-.07-.21Zm3.77.43c-.76,0-1.69-.62-1.69-2.27s.88-2.29,1.84-2.29c.9,0,1.67.81,1.67,2.29,0,1.87-1.07,2.27-1.81,2.27Zm.06-6.01h-.05c-2.97,0-3.63,2.49-3.63,3.65h0c-.03.55.11,1.27.32,1.73.47,1.04,1.47,2.07,3.35,2.07s3.68-1.18,3.68-3.76v-.02c.05-1.18-.75-3.67-3.68-3.67h0Zm7.73,5.59c-.92,0-1.59-.71-1.59-2.24,0-1.27.75-1.92,1.58-1.92.74,0,1.68.64,1.68,1.93,0,1.42-.69,2.23-1.67,2.23Zm3.39-5.33c-.06-.05-.13-.07-.2-.08-.08,0-1.13,0-1.21,0-.07,0-.14.02-.2.06-.04.04-.06.08-.08.13,0,.03,0,.05-.01.09-.03.16-.08.3-.2.31-.07,0-.13-.02-.18-.08-.26-.21-.67-.71-1.79-.71-2.4,0-2.98,2.28-3.04,3.1,0,0-.02.23-.02.35,0,2.53,1.42,3.62,3.06,3.62.78,0,1.57-.42,1.74-.64.02-.02.04-.04.07-.06.03-.02.06-.04.09-.05.05-.02.11-.02.17,0,.09.06.11.17.09.34,0,.02-.05.65-.07.73-.06.37-.34,1.15-1.34,1.26-.82.09-1.33-.25-1.64-.81-.04-.08-.16-.14-.27-.14-.05,0-1.24-.02-1.33,0-.08.01-.16.06-.21.12-.05.06-.06.15-.03.27.23.93,1.25,1.87,3.1,1.87h.04c2.82,0,3.57-1.6,3.57-3.27,0,0,0-6.08,0-6.18s-.04-.18-.1-.23Zm16.92,2.58c-.05.07-.14.11-.28.12-.14,0-2.17,0-2.3,0s-.23-.02-.3-.07c-.04-.03-.08-.08-.09-.14-.01-.06-.02-.11,0-.17.04-.34.51-1.18,1.6-1.18.94,0,1.31.81,1.4,1.09.05.13.04.24-.02.34Zm-1.5-2.86c-2.52.07-3.5,2.27-3.5,3.72,0,.86.34,3.72,3.64,3.72,2.4,0,3.05-1.76,3.14-1.99.02-.05.02-.1.02-.16,0-.02,0-.04-.01-.06-.02-.08-.07-.15-.15-.15h-1.16c-.08,0-.2.05-.3.16-.03.04-.07.09-.1.12-.16.18-.56.64-1.35.64-1.33,0-1.72-.89-1.76-1.34,0-.04,0-.07,0-.1-.01-.15.07-.29.21-.34.05-.02.1-.03.16-.03.06,0,4.03.01,4.13,0,.1,0,.2-.01.29-.03.07,0,.14-.03.2-.08.05-.03.08-.09.1-.18.01-.07.02-.26.02-.35,0-1.39-.98-3.64-3.57-3.57h0Zm19.13-4.5s0-.02,0-.03v-.02s0-.01,0-.02c0,0,0-.01,0-.01,0,0,.01-.02.03-.02h0s0,0,0,0h.1s.07,0,.09,0c.03,0,.05.01.08.02.02.01.04.03.05.05,0,.01.01.03.01.04,0,.02,0,.04,0,.05,0,.02-.01.04-.02.06-.01.01-.02.02-.04.03-.02,0-.04.01-.06.02-.02,0-.05,0-.07,0h-.07s-.07,0-.07,0c-.02,0-.04,0-.05-.02,0-.01-.01-.03-.01-.06v-.08s0-.02,0-.03h0Zm-.14.64s0,.01,0,.02c0,0,0,.01.01.02,0,0,.02.01.03.01.01,0,.02,0,.04,0,.01,0,.02,0,.03,0,.01,0,.02-.01.02-.02,0-.01,0-.02,0-.04,0-.02,0-.03,0-.05v-.17s0-.04,0-.05c0-.02,0-.03.01-.04,0,0,.01-.01.02-.01,0,0,.02,0,.03,0h.02s.02,0,.04,0c.01,0,.02,0,.03,0,.02.01.03.03.04.04,0,.02.02.03.03.05l.13.21s.02.02.02.04c0,.01.02.02.03.03,0,0,.01,0,.02,0,0,0,.01,0,.02,0,.01,0,.03,0,.04,0,0,0,.01,0,.02,0,0,0,0,0,.01,0,.01,0,.01-.02,0-.04,0-.01,0-.02-.02-.03l-.02-.03-.13-.19s-.01-.02-.02-.03c0,0-.01-.02-.02-.03h0s0-.02,0-.02c0,0,0-.02.01-.02,0,0,.02-.01.03-.02,0,0,.02,0,.03-.01,0,0,.02,0,.03-.01.02-.01.04-.03.06-.05.02-.02.03-.05.04-.08,0-.01,0-.03,0-.05,0-.02,0-.03,0-.05v-.06s-.03-.07-.05-.1c-.01-.01-.03-.03-.04-.03-.04-.03-.08-.04-.13-.05-.06,0-.11,0-.17,0h-.22s0,0,0,0h0s-.02.01-.03.02c0,0,0,.02,0,.03v.77s0,.02,0,.03h0Zm.29-1.16c.42,0,.76.34.76.76,0,.42-.34.76-.76.76-.42,0-.76-.34-.76-.76,0-.42.34-.76.76-.76,0,0,0,0,0,0Zm0,1.66c.5,0,.9-.4.9-.9,0-.5-.4-.9-.9-.9-.5,0-.9.4-.9.9,0,.5.4.9.9.9Zm-1.86,10.38c0,.16-.07.27-.2.31-.14.04-1.36.02-1.45,0-.08,0-.15-.05-.2-.12-.04-.06-.06-.14-.06-.21,0-.09,0-3.29,0-3.29,0-.34-.01-.65-.04-.94-.03-.29-.16-1.19-1.26-1.19-.98,0-1.33.79-1.39,1.19-.06.45-.09.9-.08,1.36v2.8c0,.08-.01.15-.04.21-.04.09-.12.16-.22.18-.14.04-1.26.02-1.36.01-.1,0-.17-.04-.22-.1-.06-.08-.09-.2-.09-.36,0-.15,0-6.22.01-6.3,0-.07.03-.15.08-.21.06-.07.18-.11.39-.11h.78c.22,0,.49,0,.52.2,0,.05.06.47.24.48.05,0,.09-.02.14-.07.02-.02.28-.3.5-.42.72-.45,1.98-.48,2.74-.13.36.16.66.43.86.77.21.34.37.97.37,1.58,0,.14,0,4.18,0,4.34h0Zm-8.04.19c-.04.06-.14.14-.28.15-.13,0-1.4,0-1.49-.01-.08,0-.15-.03-.21-.08-.05-.05-.07-.11-.08-.21,0-.1-.01-.19-.01-.29,0,0,0-8.49,0-8.66,0-.17.02-.3.06-.37.04-.06.13-.14.25-.14.02,0,1.44,0,1.53,0,.09,0,.16.04.21.1.05.07.08.16.08.25,0,.1,0,8.79.01,8.94,0,.15-.02.26-.06.33Zm2.79-12.86c-4.5,0-8.15,3.65-8.15,8.15s3.65,8.15,8.15,8.15,8.15-3.65,8.15-8.15-3.65-8.15-8.15-8.15Zm-16.54,3.14h-2.36c-.08,0-.15.02-.21.07-.07.04-.12.1-.15.18l-.08.22c-.05.15-1.88,5.81-1.9,5.84-.05.09-.1.14-.15.14-.1,0-.17-.19-.27-.48-.05-.14-1.91-5.58-1.93-5.67-.02-.08-.07-.15-.14-.2-.08-.06-.2-.1-.35-.1s-2.28.01-2.3,0c-.02,0-.04,0-.05,0-.11.03-.18.07-.22.14-.02.05-.04.1-.04.16,0,.07-.01.14-.01.21v8.66c0,.1,0,.2.01.29,0,.1.04.17.1.21.06.05.13.07.21.08.08,0,1.13,0,1.21.01.07,0,.14,0,.21-.02.1-.02.17-.06.21-.12.04-.05.06-.11.06-.18v-5.76c.01-.06.04-.17.12-.16.03,0,.05.01.07.02.02.01.04.03.05.05.06.08.11.19.15.32,0,.02,1.94,5.49,1.96,5.55.07.17.18.3.36.3h1.22c.14,0,.22-.12.26-.22.39-.99,1.69-5.03,2.04-5.86.03-.08.1-.19.12-.2.02-.01.08-.06.11-.05.05.02.06.02.08.1.01.07,0,.22,0,.28,0,.08.02,5.4.02,5.4v.23c0,.07.02.13.05.18.04.06.13.14.32.14,0,0,1.22,0,1.3,0,.08,0,.15-.03.21-.08.06-.05.08-.12.09-.21,0-.1,0-8.96,0-9.11s-.05-.25-.15-.31c-.05-.04-.11-.06-.2-.06Z" fill="#165c7d" stroke-width="0"/>
  </g>
  <g id="ay" data-name="Rectangles">
    <rect x=".36" y=".36" width="71.28" height="71.28" fill="none" stroke-width="0"/>
  </g>
</svg>