<?xml version="1.0" encoding="UTF-8"?>
<svg xmlns="http://www.w3.org/2000/svg" viewBox="0 0 72 72">
  <g id="av" data-name="Access Manager">
    <g>
      <path d="m38.53,41.54l6.53,6.55s.07.01.1,0c.03-.01.05-.03.07-.06h0s0,0,0,0c.01-.02.02-.04.02-.07v-20.83s0-.07-.02-.1h-20.92v-.03c-.06,0-.11.03-.13.08-.03.05-.03.11,0,.16l6.56,6.54-14.65,14.69-6.51-6.51s-.07-.01-.1,0h-.02s-.03,0-.04,0c0,0,0,0-.01,0,0,0,0,.01,0,.02-.04.03-.07.06-.07.11v20.83c0,.08.06.14.14.14l20.85-.03c.06,0,.11-.03.13-.08.03-.05.03-.11,0-.16l-6.61-6.56,14.68-14.69Zm-7.61-7.81h0s0,0,0,0h0Z" fill="#007cd0" stroke-width="0"/>
      <path d="m62.74,9.24H9.48c-.11-.02-.22.05-.25.17,0,.01,0,.03,0,.04v23.58c0,.06.02.11.06.15l2.8,2.85s.09.02.14,0c.03.01.05.01.08,0,.08-.03.13-.11.13-.19V12.33h47.36v47.4h-23.19c-.09,0-.17.05-.2.13-.04.07-.04.16,0,.23l2.83,2.83s.09.06.14.06h23.36c.12,0,.21-.09.21-.21V9.45c0-.12-.09-.21-.21-.21Z" fill="#007cd0" stroke-width="0"/>
    </g>
  </g>
  <g id="ay" data-name="Rectangles">
    <rect x=".36" y=".36" width="71.28" height="71.28" fill="none" stroke-width="0"/>
  </g>
</svg>