<?xml version="1.0" encoding="UTF-8"?>
<svg xmlns="http://www.w3.org/2000/svg" xmlns:xlink="http://www.w3.org/1999/xlink" viewBox="0 0 71.84 72">
  <defs>
    <linearGradient id="s" x1="36.11" y1="1500.17" x2="36.11" y2="1473.04" gradientTransform="translate(0 1514) scale(1 -1)" gradientUnits="userSpaceOnUse">
      <stop offset="0" stop-color="#2684ff"/>
      <stop offset=".82" stop-color="#0052cc"/>
    </linearGradient>
    <linearGradient id="t" x1="28" y1="1473.83" x2="37.05" y2="1454.76" gradientTransform="translate(0 1514) scale(1 -1)" gradientUnits="userSpaceOnUse">
      <stop offset="0" stop-color="#2684ff"/>
      <stop offset=".62" stop-color="#0052cc"/>
    </linearGradient>
  </defs>
  <g id="r" data-name="Opsgenie">
    <path d="m36.11,35.81c7.34,0,13.28-5.9,13.28-13.18s-5.95-13.18-13.28-13.18-13.28,5.9-13.28,13.18,5.95,13.18,13.28,13.18Z" fill="url(#s)" stroke-width="0"/>
    <path d="m35,62.1c-8.66-5.55-15.89-13.04-21.04-21.92-.37-.74-.15-1.63.6-2h.07l10.07-4.89c.67-.37,1.57-.07,1.94.59,5.07,8.44,12.61,15.26,21.64,19.4-3.36,3.33-7.01,6.3-10.97,8.81-.75.37-1.64.37-2.31,0Z" fill="url(#t)" stroke-width="0"/>
    <path d="m37.23,62.1c8.73-5.48,15.89-13.04,21.12-21.85.37-.74.15-1.63-.6-2h-.07l-10.07-4.89c-.67-.37-1.57-.07-1.94.59-5.07,8.44-12.61,15.26-21.64,19.4,3.28,3.33,7.01,6.3,10.97,8.81.67.3,1.57.3,2.24-.07Z" fill="#2684ff" stroke-width="0"/>
  </g>
  <g id="ba" data-name="Rectangles">
    <rect x="-.05" y=".36" width="71.28" height="71.28" fill="none" stroke-width="0"/>
  </g>
</svg>