<?xml version="1.0" encoding="UTF-8"?>
<svg xmlns="http://www.w3.org/2000/svg" viewBox="0 0 72 72">
  <g id="t" data-name="Mulesoft">
    <path id="u" data-name="path60" d="m36.07,60.76c-13.49,0-24.55-10.94-24.55-24.43s10.94-24.55,24.43-24.55,24.55,10.94,24.55,24.43c.12,13.49-10.82,24.55-24.43,24.55Zm0-51.42c-14.83.12-26.74,12.03-26.62,26.86.12,14.83,12.03,26.74,26.86,26.62,14.83-.12,26.74-12.03,26.62-26.86,0-7.05-2.92-13.86-7.9-18.84-4.98-4.98-11.91-7.78-18.96-7.78Z" fill="#00a1df" stroke-width="0"/>
    <path id="v" data-name="path62" d="m29.02,48.49c-4.38-2.19-7.17-6.81-7.05-11.67,0-2.67.73-5.23,2.19-7.41l9.12,13.86h5.47l9.12-13.86c1.46,2.19,2.19,4.74,2.19,7.41,0,4.62-2.31,8.87-6.2,11.3l1.7,6.81c10.33-5.47,14.22-18.35,8.75-28.69-1.82-3.4-4.5-6.2-7.66-8.14l-10.57,16.53-10.45-16.65c-9.97,5.96-13.25,18.96-7.29,29.05,2.07,3.52,5.23,6.32,8.99,8.14,0,.12,1.7-6.69,1.7-6.69Z" fill="#00a1df" fill-rule="evenodd" stroke-width="0"/>
  </g>
  <g id="ba" data-name="Rectangles">
    <rect x=".36" y=".36" width="71.28" height="71.28" fill="none" stroke-width="0"/>
  </g>
</svg>