<?xml version="1.0" encoding="UTF-8"?>
<svg xmlns="http://www.w3.org/2000/svg" viewBox="0 0 72.06 72">
  <g id="ae" data-name="FreshDesk">
    <path d="m56.88,9.46c-7.52,0-13.37,0-20.89,0-14.66,0-26.54,11.89-26.54,26.54s11.88,26.54,26.54,26.54,26.57-11.88,26.57-26.54c0-7.59.03-13.25.03-20.83,0-3.89-1.8-5.71-5.71-5.71Zm-8.83,32.26c-.01,1.79-.95,3.16-2.63,3.79-.35.13-.47.31-.5.68-.16,2.64-2.19,4.57-4.83,4.61-1.14.02-2.29,0-3.43,0-.15,0-.83.09-.83-.61,0-.48.52-.42.7-.42.6,0,1.37-.01,2.11-.03.69-.01,1.28.01,1.97-.07,1.68-.2,3.07-1.68,3.21-3.33.03-.38-.08-.54-.48-.53-.69.02-1.39,0-2.08,0-.39,0-.52-.15-.52-.52,0-2.81,0-5.61,0-8.42,0-.41.18-.55.57-.55h3.48c.48.01.67-.13.67-.64-.01-1.58.02-3.14-.53-4.67-1.45-4.1-5.61-6.75-9.9-6.27-4.45.5-7.94,3.92-8.42,8.3-.1.93-.05,1.87-.08,2.8-.01.42.24.48.57.48,1.13,0,2.25,0,3.38,0,.68,0,.72.04.72.7,0,2.7,0,5.4.01,8.1,0,.51-.12.72-.67.69-.85-.04-1.7,0-2.55-.01-2.49-.03-4.25-1.79-4.26-4.27,0-2.72-.01-5.44,0-8.16.04-6.36,4.88-11.57,11.39-12.02,6.45-.45,11.77,3.98,12.72,9.92.24,1.51.14,3.07.19,4.61.02.47,0,.94,0,1.4h0c0,1.47,0,2.94,0,4.42Z" fill="#25c16f" stroke-width="0"/>
  </g>
  <g id="ay" data-name="Rectangles">
    <rect x=".41" y=".36" width="71.28" height="71.28" fill="none" stroke-width="0"/>
  </g>
</svg>