<?xml version="1.0" encoding="UTF-8"?>
<svg xmlns="http://www.w3.org/2000/svg" viewBox="0 0 72 72">
  <g id="ab" data-name="Google">
    <path d="m12.64,24.18c1.5-3.08,3.56-5.72,6.12-7.98,4.17-3.67,9.03-5.91,14.55-6.53,7.9-.89,14.94,1.16,20.94,6.48.08.07.18.12.23.15-2.56,2.6-5.07,5.13-7.57,7.67-.8-.59-1.56-1.22-2.39-1.73-6.14-3.78-14.15-2.64-19.28,2.7-1.68,1.75-2.89,3.79-3.71,6.07-.16-.11-.34-.2-.49-.32-2.8-2.16-5.6-4.33-8.41-6.5Z" fill="#e84135" stroke-width="0"/>
    <path d="m54.35,56.35c-2.02,1.94-4.35,3.4-6.94,4.44-10.15,4.08-22.33,2.19-30.42-6.42-1.75-1.87-3.23-3.93-4.34-6.25,2.96-2.28,5.92-4.56,8.88-6.84.98,2.7,2.47,5.06,4.64,6.96,3.6,3.17,7.81,4.42,12.56,3.9,2.47-.27,4.77-1,6.86-2.35.06-.04.13-.05.2-.07,1.15.91,2.3,1.82,3.46,2.71,1.7,1.31,3.4,2.61,5.1,3.92Z" fill="#34a853" stroke-width="0"/>
    <path d="m54.35,56.35c-1.7-1.3-3.41-2.6-5.1-3.92-1.16-.9-2.31-1.81-3.46-2.71,1.3-1,2.51-2.09,3.41-3.48.95-1.46,1.6-3.03,1.89-4.81h-14.49v-10.24h25.22c.13,1.08.31,2.17.38,3.28.28,4.72-.26,9.32-2.12,13.71-1.33,3.13-3.18,5.9-5.73,8.18Z" fill="#4285f3" stroke-width="0"/>
    <path d="m21.52,41.28c-2.96,2.28-5.92,4.56-8.88,6.84-1.14-2.12-1.89-4.38-2.35-6.73-1.14-5.88-.43-11.53,2.18-16.93.05-.1.11-.19.16-.28,2.8,2.17,5.6,4.33,8.41,6.5.15.12.33.21.49.32-1.13,3.42-1.1,6.85-.02,10.28Z" fill="#f9ba09" stroke-width="0"/>
  </g>
  <g id="ay" data-name="Rectangles">
    <rect x=".36" y=".36" width="71.28" height="71.28" fill="none" stroke-width="0"/>
  </g>
</svg>