<?xml version="1.0" encoding="UTF-8"?>
<svg xmlns="http://www.w3.org/2000/svg" viewBox="0 0 72 72">
  <g id="aa" data-name="Google Apps">
    <g>
      <path d="m27.11,10.12c1.69,1.26,3.37,2.51,5.06,3.77,1.19.89,2.39,1.78,3.58,2.69.19.15.31.14.5,0,2.77-2.09,5.55-4.17,8.32-6.25.1-.08.21-.14.31-.21,0,.19,0,.37,0,.56,0,3.01,0,6.02,0,9.03,0,.02-.01.04-.02.06-1.18.87-2.36,1.75-3.53,2.62-1.78,1.33-3.55,2.66-5.34,4.01-.1-.07-.21-.14-.31-.22-2.78-2.09-5.56-4.17-8.35-6.26-.07-.05-.15-.1-.23-.15,0-.02-.01-.04-.02-.06,0-3.19,0-6.39,0-9.58Z" fill="#e94335" stroke-width="0"/>
      <path d="m44.89,19.75s.01-.04.02-.06c.11-.08.23-.15.34-.24,2.35-1.75,4.69-3.51,7.03-5.26.01.11.03.23.03.34,0,5.1,0,10.2,0,15.31,0,1.23-.6,2.1-1.66,2.39-.22.06-.46.09-.68.09-1.62,0-3.24,0-4.86,0-.06,0-.11,0-.21-.01,0-.15,0-.28,0-.41,0-3.91,0-7.82,0-11.73,0-.14,0-.28,0-.42Z" fill="#35a853" stroke-width="0"/>
      <path d="m27.12,32.3c-.1.01-.18.03-.26.03-1.6,0-3.19,0-4.79,0-1.15,0-2.01-.63-2.28-1.66-.06-.24-.09-.5-.09-.75,0-5.14,0-10.28,0-15.42,0-.1.02-.21.02-.31,1.07.8,2.14,1.61,3.22,2.41,1.39,1.04,2.78,2.07,4.17,3.1,0,.02.01.04.02.06v12.54Z" fill="#4285f3" stroke-width="0"/>
      <path d="m27.11,19.69c-1.39-1.03-2.78-2.07-4.17-3.1-1.07-.8-2.15-1.61-3.22-2.41.03-1.27-.09-2.56.13-3.8.38-2.16,3.06-3.22,4.9-2.02.82.53,1.58,1.17,2.37,1.75,0,3.19,0,6.39,0,9.58Z" fill="#c42220" stroke-width="0"/>
      <path d="m52.28,14.2c-2.34,1.75-4.69,3.51-7.03,5.26-.11.08-.23.16-.34.24,0-3.01,0-6.02,0-9.03,0-.19,0-.37,0-.56.77-.57,1.51-1.19,2.3-1.71,2.08-1.37,4.9.03,5.07,2.51.07,1.09.01,2.19.02,3.29Z" fill="#fabb05" stroke-width="0"/>
    </g>
    <g>
      <path d="m7.59,56.82c0-.14-.01-.27-.01-.41,0-5.71,0-11.42,0-17.13,0-.87.75-1.72,1.67-1.82.37-.04.75-.05,1.12-.05,5.41,0,10.82,0,16.22,0,.14,0,.27.01.41.02,0,2,0,3.99,0,5.99,0,.01-.01.02-.03.03-.09,0-.19-.02-.28-.02-4.27,0-8.54,0-12.81,0-.09,0-.18.01-.3.02v13.36s-.01.02-.02.03c-2,0-3.99,0-5.99-.01Z" fill="#4284f3" stroke-width="0"/>
      <path d="m32.98,43.43c0,.12.02.25.02.37,0,4.22,0,8.44,0,12.66,0,.12-.03.24-.05.36-1.98,0-3.97,0-5.95,0h-.02c0-.14,0-.26,0-.39,0-4.33,0-8.67,0-13,.01,0,.02-.01.03-.03.11,0,.23.01.34.01,1.87,0,3.75,0,5.62,0Z" fill="#fabb04" stroke-width="0"/>
      <path d="m27,62.77c-.09.02-.18.05-.26.05-4.33,0-8.66,0-12.99,0-.05,0-.1,0-.16-.01,0-2,0-3.99,0-5.99,0-.01.01-.02.02-.03.14,0,.27.01.41.01,4.32,0,8.65,0,12.97,0,0,0,.02.01.02.01,0,1.98,0,3.97,0,5.95Z" fill="#34a753" stroke-width="0"/>
      <path d="m13.58,56.83c0,2,0,3.99,0,5.99-1.31,0-2.62,0-3.94.02-1.12.01-1.82-.74-2.07-1.68-.03-.13,0-.27,0-.4,0-1.31,0-2.63.01-3.94,2,0,3.99,0,5.99.01Z" fill="#188038" stroke-width="0"/>
      <path d="m32.98,43.43c-1.87,0-3.75,0-5.62,0-.11,0-.23,0-.34-.01,0-2,0-3.99,0-5.99,1.44,0,2.88-.04,4.31.05.86.05,1.59.82,1.63,1.74.05,1.34.04,2.69.05,4.03,0,.06-.01.12-.02.18Z" fill="#1967d1" stroke-width="0"/>
      <path d="m27,62.77c0-1.98,0-3.97,0-5.95,1.98,0,3.97,0,5.95,0-1.83,1.84-3.65,3.68-5.48,5.52-.15.15-.31.29-.47.44Z" fill="#e94436" stroke-width="0"/>
    </g>
    <g>
      <path d="m61.23,62.69c-.43.3-.93.4-1.44.4-5.37,0-10.74,0-16.1,0-.5,0-.98-.1-1.41-.39.35-.62.69-1.24,1.05-1.85.85-1.48,1.72-2.96,2.57-4.44.23-.41.45-.83.67-1.24.02,0,.05-.02.07-.03.08,0,.16,0,.24,0,3.25,0,6.49,0,9.74,0,.08,0,.16,0,.24-.02.02.01.04.02.06.03.05.1.09.2.15.29,1.39,2.42,2.78,4.83,4.18,7.25Z" fill="#4385f3" stroke-width="0"/>
      <path d="m56.9,55.16s-.04-.02-.06-.03c-.05-.1-.09-.2-.15-.29-.94-1.64-1.89-3.27-2.83-4.91-.7-1.21-1.41-2.43-2.12-3.64,0-.03,0-.06.01-.1.07-.11.16-.23.22-.34,1.37-2.38,2.75-4.76,4.12-7.14.46.23.79.59,1.05,1.03,2.69,4.65,5.37,9.3,8.05,13.95.26.44.42.92.38,1.44-2.84,0-5.67,0-8.51,0-.06,0-.12.01-.18.02Z" fill="#fabb04" stroke-width="0"/>
      <path d="m51.76,46.2s0,.06-.01.1c-.02.03-.05.06-.07.09-1.68,2.91-3.36,5.83-5.04,8.75-.02,0-.05.02-.07.03-.05,0-.1-.02-.15-.02-2.84,0-5.67,0-8.51,0-.04-.56.15-1.05.42-1.52,1.52-2.63,3.04-5.27,4.56-7.9,1.13-1.96,2.27-3.93,3.4-5.89.27-.47.62-.87,1.11-1.12.08.16.15.32.24.48,1.16,2.01,2.32,4.02,3.49,6.02.2.34.41.66.62.99Z" fill="#34a753" stroke-width="0"/>
      <path d="m56.9,55.16c.06,0,.12-.02.18-.02,2.84,0,5.67,0,8.51,0,.04.48-.08.93-.31,1.34-1.01,1.76-2.02,3.52-3.04,5.27-.24.41-.56.74-1,.94-1.39-2.41-2.79-4.83-4.18-7.25-.05-.09-.1-.19-.15-.29Z" fill="#e94435" stroke-width="0"/>
      <path d="m37.91,55.14c2.84,0,5.67,0,8.51,0,.05,0,.1.01.15.02-.22.42-.43.84-.67,1.25-.85,1.48-1.72,2.96-2.57,4.44-.35.61-.7,1.24-1.05,1.85-.46-.21-.79-.56-1.04-.98-1.01-1.72-2-3.45-2.99-5.18-.24-.43-.38-.89-.34-1.39Z" fill="#1a67d1" stroke-width="0"/>
      <path d="m51.76,46.2c-.21-.33-.43-.66-.62-.99-1.17-2-2.33-4.01-3.49-6.02-.09-.15-.16-.32-.24-.48.41-.26.87-.38,1.35-.38,1.99,0,3.98,0,5.97,0,.49,0,.96.12,1.38.39-1.37,2.38-2.75,4.76-4.12,7.14-.07.12-.15.23-.22.34Z" fill="#188038" stroke-width="0"/>
    </g>
  </g>
  <g id="ay" data-name="Rectangles">
    <rect x=".36" y=".36" width="71.28" height="71.28" fill="none" stroke-width="0"/>
  </g>
</svg>