<?xml version="1.0" encoding="UTF-8"?>
<svg xmlns="http://www.w3.org/2000/svg" viewBox="0 0 72 72">
  <g id="s" data-name="Nextcloud">
    <path id="t" data-name="path1052" d="m35.99,18.35c-5.54,0-10.24,3.76-11.7,8.85-1.27-2.7-4.01-4.59-7.17-4.59-4.34,0-7.91,3.57-7.91,7.91s3.57,7.92,7.91,7.92c3.16,0,5.9-1.89,7.17-4.59,1.46,5.09,6.15,8.85,11.7,8.85s10.17-3.7,11.67-8.74c1.29,2.64,4,4.48,7.11,4.48,4.34,0,7.92-3.57,7.92-7.92s-3.57-7.91-7.92-7.91c-3.11,0-5.82,1.84-7.11,4.48-1.49-5.03-6.17-8.73-11.67-8.73Zm0,4.65c4.18,0,7.53,3.34,7.53,7.52s-3.34,7.53-7.53,7.53-7.52-3.34-7.52-7.53,3.34-7.52,7.52-7.52Zm-18.86,4.26c1.83,0,3.27,1.44,3.27,3.27s-1.44,3.27-3.27,3.27-3.27-1.44-3.27-3.27,1.44-3.27,3.27-3.27Zm37.64,0c1.83,0,3.27,1.44,3.27,3.27s-1.44,3.27-3.27,3.27-3.27-1.44-3.27-3.27,1.44-3.27,3.27-3.27Z" fill="#0082c9" stroke-width="0"/>
    <path id="u" data-name="path1174" d="m14.79,46.37c-.15,0-.22.09-.22.24v6.4c0,.15.07.24.22.24h.18c.15,0,.24-.09.24-.24v-5.32l3.5,5.43s.03.04.05.06c0,0,0,.01.01.02.01.01.03.02.05.03,0,0,.02.01.03.02,0,0,.01,0,.02,0,.02,0,.05.01.08.01h.18c.15,0,.22-.09.22-.24v-6.4c0-.15-.07-.24-.22-.24h-.18c-.15,0-.24.09-.24.24v5.32l-3.5-5.43s-.03-.03-.04-.04c-.04-.06-.1-.09-.2-.09h-.18Zm41.98.09c-.15,0-.09.09-.09.24v2.19c0,.22.02.37.02.37h-.02s-.42-.97-1.59-.97c-1.28,0-2.19,1.02-2.14,2.52,0,1.5.82,2.54,2.12,2.54s1.68-1.02,1.68-1.02h.02s-.04.13-.04.31v.37c0,.15.09.22.24.22h.15c.15,0,.22-.09.22-.24v-6.29c0-.15-.24-.24-.4-.24h-.18Zm-17.16.02c-.15,0-.07.09-.07.24v5.41c0,1.06.71,1.19,1.1,1.19.18,0,.24-.09.24-.24v-.15c0-.15-.09-.22-.2-.22-.22-.02-.51-.09-.51-.71v-5.28c0-.15-.24-.24-.4-.24h-.18Zm-7.93.57c-.15,0-.24.09-.24.24v4.2c0,1.15.64,1.79,1.7,1.79.2,0,.26-.07.26-.22v-.13c0-.18-.07-.22-.26-.24-.38-.02-1.06-.15-1.06-1.28v-2.43h.99c.15,0,.24-.07.24-.22v-.07c0-.15-.09-.24-.24-.24h-.99v-1.15c0-.15-.07-.24-.22-.24h-.18Zm-8.8,1.24c-1.32,0-2.39.95-2.41,2.54,0,1.5,1.1,2.54,2.54,2.54.77,0,1.35-.33,1.61-.53.11-.09.13-.2.07-.31l-.07-.11c-.07-.13-.18-.15-.31-.07-.22.18-.66.44-1.28.44-.99,0-1.86-.71-1.88-1.94h3.51c.13,0,.24-.11.24-.24,0-1.39-.73-2.32-2.03-2.32Zm13.72,0c-1.44,0-2.54,1.06-2.56,2.56,0,1.5,1.1,2.54,2.54,2.54.88,0,1.48-.42,1.72-.62.11-.11.13-.2.07-.33l-.07-.09c-.09-.13-.18-.15-.31-.07-.22.2-.68.51-1.37.51-1.06,0-1.9-.8-1.9-1.94s.84-1.97,1.9-1.97c.57,0,.99.29,1.21.44.13.09.24.09.33-.04l.07-.11c.11-.13.09-.24-.02-.33-.24-.2-.77-.55-1.61-.55h0Zm7.46,0c-1.41,0-2.56,1.08-2.56,2.52s1.15,2.56,2.56,2.56,2.56-1.1,2.56-2.56-1.15-2.52-2.56-2.52Zm-14.29.07c-.05,0-.11.05-.16.1l-.89,1.06-.67.8-1.01-1.21-.55-.66c-.05-.06-.11-.09-.16-.1-.06,0-.12.02-.18.07l-.14.11c-.12.1-.11.21-.01.33l.89,1.06.74.88-1.09,1.29s0,0,0,0l-.55.65c-.1.12-.09.24.03.34l.14.11c.12.1.23.07.33-.04l.89-1.06.67-.8,1.01,1.21s0,0,0,0l.55.65c.1.12.22.13.34.03l.14-.11c.12-.1.11-.21.01-.33l-.89-1.07-.74-.88,1.09-1.29s0,0,0,0l.55-.65c.1-.12.09-.24-.03-.34l-.14-.11c-.06-.05-.12-.07-.17-.06h0Zm18.15.04c-.15,0-.22.09-.22.24v2.85c0,1.26.93,1.88,2.08,1.88s2.08-.62,2.08-1.88v-2.85c.02-.15-.07-.24-.22-.24h-.18c-.15,0-.24.09-.24.24v2.67c0,.75-.49,1.44-1.44,1.44s-1.44-.68-1.44-1.44v-2.67c0-.15-.09-.24-.24-.24h-.18Zm-25.07.44c.71,0,1.32.51,1.37,1.52h-3.05c.15-.99.86-1.52,1.68-1.52Zm21.21.04c1.04,0,1.88.82,1.88,1.92s-.84,1.99-1.88,1.99-1.88-.86-1.9-1.99c0-1.08.86-1.92,1.9-1.92Zm11.06,0c1.04,0,1.55.95,1.55,1.94,0,1.39-.75,1.97-1.57,1.97-.91,0-1.52-.77-1.55-1.97,0-1.24.71-1.94,1.57-1.94Z" fill="#0082c9" stroke-width="0"/>
  </g>
  <g id="ba" data-name="Rectangles">
    <rect x=".36" y=".36" width="71.28" height="71.28" fill="none" stroke-width="0"/>
  </g>
</svg>