<?xml version="1.0" encoding="UTF-8"?>
<svg xmlns="http://www.w3.org/2000/svg" viewBox="0 0 72 72">
  <g id="y" data-name="Insightly">
    <path d="m62.53,62.52H9.58V9.58h52.94v52.94Zm-24.69-28.75c.23-.82.49-1.64.68-2.47.16-.7.32-1.41.34-2.12.03-.97-.58-1.58-1.55-1.65-1.62-.12-3.01.55-4.37,1.32-1.73.98-2.61,2.48-2.7,4.46-.1,2.25-.21,4.51-.31,6.76-.11,2.34-.21,4.68-.32,7.01-.05,1-.64,1.63-1.57,1.75-.85.11-1.54-.31-1.76-1.3-.26-1.15-.46-2.33-.5-3.5-.06-1.74-.03-3.48.09-5.21.1-1.56.36-3.1.56-4.65.18-1.34.46-2.68.55-4.02.09-1.53-1.18-2.49-2.67-2.13-1.59.39-2.87,1.3-3.98,2.47-.57.6-.96,1.29-1.15,2.1-.57,2.47-.76,4.99-.93,7.51-.06.96-.06,1.93-.13,2.89-.15,1.95-.12,3.89.35,5.8,1.06,4.33,4.29,5.81,8.12,5.19.97-.16,1.89-.66,2.85-1.01,0-.02.04.09.08.2.25.72.58.97,1.33.96.4,0,.8.03,1.19-.05,1-.21,2.04-.37,2.97-.76,1.42-.58,2.09-1.74,2.12-3.31.02-1.48.04-2.97.22-4.43.23-1.92.54-3.84.94-5.73.3-1.41.79-2.78,1.71-3.94.4-.51.91-.93,1.59-.71.69.22.86.88.85,1.51-.04,1.37-.09,2.75-.23,4.11-.25,2.23-.71,4.45-.48,6.72.18,1.77.68,3.43,1.98,4.71,1.93,1.89,4.32,2.24,6.81,1.64,2.98-.71,4.57-2.88,5.34-5.73.17-.63.1-1.23-.21-1.8-.48-.88-1.5-.99-2.13-.2-.25.31-.42.67-.63,1-.23.36-.44.75-.73,1.06-.75.82-1.95.68-2.45-.31-.24-.46-.43-1-.45-1.51-.06-1.56-.11-3.13,0-4.69.13-1.98.44-3.96.63-5.94.15-1.53.2-3.06-.15-4.57-.55-2.33-2.3-3.5-4.84-3.16-1.63.22-2.91,1.11-4.09,2.16-1.16,1.04-2.13,2.24-2.95,3.58Zm-11.53-16.61c-1.56,0-2.77.5-3.86,1.36-2.05,1.63-2.08,4.38-1.15,6.49.37.85,1.08,1.28,2,1.45,1.32.23,2.49-.14,3.55-.88,1.83-1.26,2.63-3.08,2.71-5.24.07-1.76-.72-2.73-2.43-3.11-.32-.07-.65-.06-.81-.08Z" fill="#ff5621" stroke-width="0"/>
  </g>
  <g id="ay" data-name="Rectangles">
    <rect x=".36" y=".36" width="71.28" height="71.28" fill="none" stroke-width="0"/>
  </g>
</svg>