<?xml version="1.0" encoding="UTF-8"?>
<svg xmlns="http://www.w3.org/2000/svg" viewBox="0 0 72 72">
  <g id="o" data-name="Proxyclick">
    <path d="m48.04,29.37h-1.47v8.51h1.47v-8.51Z" fill="#0d122e" stroke-width="0"/>
    <path d="m50.27,29.23c-.51,0-.92.42-.92.94,0,.49.42.91.92.91s.92-.41.92-.91c0-.53-.4-.94-.92-.94Z" fill="#0d122e" stroke-width="0"/>
    <path d="m42.79,31.96c-1.69,0-2.97,1.31-2.97,3.06s1.29,3.06,3.02,3.06c1.56,0,2.41-1.01,2.66-1.89l-1.28-.43c-.16.48-.6.97-1.37.97-.91,0-1.54-.7-1.54-1.71,0-1.17.77-1.7,1.53-1.7.87,0,1.2.59,1.32.97l1.31-.44c-.24-.89-1.08-1.89-2.68-1.89Z" fill="#0d122e" stroke-width="0"/>
    <path d="m51,32.13h-1.47v5.75h1.47v-5.75Z" fill="#0d122e" stroke-width="0"/>
    <path d="m38.14,32.13l-1.46,3.5-1.58-3.5h-1.65l2.45,5.06v.02s-1.36,2.97-1.36,2.97h1.55l3.61-8.06s-1.56,0-1.56,0Z" fill="#0d122e" stroke-width="0"/>
    <path d="m61.06,35.67l1.53,2.22h1.8l-2.35-3.35,2.28-2.4h-1.92l-2.09,2.26v-5.02h-1.47v8.52h1.47v-1.52l.71-.75s.04.04.04.04Z" fill="#0d122e" stroke-width="0"/>
    <path d="m55.06,31.96c-1.69,0-2.97,1.31-2.97,3.06s1.29,3.06,3.02,3.06c1.56,0,2.41-1.01,2.66-1.89l-1.28-.43c-.16.48-.6.97-1.37.97-.91,0-1.54-.7-1.54-1.71,0-1.17.77-1.7,1.53-1.7.87,0,1.2.59,1.32.97l1.31-.44c-.24-.89-1.08-1.89-2.68-1.89Z" fill="#0d122e" stroke-width="0"/>
    <path d="m11.7,31.95c-1.74,0-3,1.28-3,3.06v5.19h1.5v-2.51l.08.04c.44.22.92.34,1.42.34,1.71,0,3-1.31,3-3.06,0-1.77-1.27-3.06-3.01-3.06Zm0,4.78c-.74,0-1.48-.53-1.48-1.72s.75-1.72,1.48-1.72c1.06,0,1.53.89,1.53,1.72s-.48,1.72-1.53,1.72Z" fill="#0d122e" stroke-width="0"/>
    <path d="m18.93,33.48v-1.51c-1.05,0-1.85.29-2.39.84-.74.74-.74,1.7-.74,2.1v2.98h1.5v-3.02c0-.24,0-.7.3-1,.32-.31.89-.39,1.33-.39Z" fill="#0d122e" stroke-width="0"/>
    <path d="m22.7,31.96c-1.74,0-3,1.28-3,3.06s1.29,3.06,3,3.06,3-1.31,3-3.06-1.26-3.06-3-3.06Zm0,4.77c-.74,0-1.53-.54-1.53-1.72,0-.83.48-1.72,1.53-1.72s1.53.89,1.53,1.72-.48,1.72-1.53,1.72Z" fill="#0d122e" stroke-width="0"/>
    <path d="m28.31,32.98c-.22-.33-.46-.68-.57-.85h-1.74l1.45,1.98c.39.53.39,1.27,0,1.8l-1.45,1.96h1.66l.95-1.38c.63-.9.64-2.1.02-3.02-.15-.22-.27-.4-.33-.49Z" fill="#0d122e" stroke-width="0"/>
    <path d="m30.55,32.98c.22-.33.46-.68.57-.85h1.74l-1.45,1.98c-.39.53-.39,1.27,0,1.8l1.45,1.96h-1.66l-.96-1.38c-.63-.91-.64-2.1-.02-3.02.15-.22.27-.4.33-.49Z" fill="#0d122e" stroke-width="0"/>
  </g>
  <g id="ay" data-name="Rectangles">
    <rect x=".36" y=".36" width="71.28" height="71.28" fill="none" stroke-width="0"/>
  </g>
</svg>