<?xml version="1.0" encoding="UTF-8"?>
<svg xmlns="http://www.w3.org/2000/svg" xmlns:xlink="http://www.w3.org/1999/xlink" viewBox="0 0 72 72">
  <defs>
    <mask id="o" data-name="mask" x="8.48" y="15.71" width="55.11" height="38.57" maskUnits="userSpaceOnUse">
      <g id="p" data-name="b">
        <path id="q" data-name="a" d="m8.54,15.71h55.05v38.45H8.54V15.71Z" fill="#fff" fill-rule="evenodd" stroke-width="0"/>
      </g>
    </mask>
  </defs>
  <g id="n" data-name="Salesforce">
    <g>
      <g mask="url(#o)">
        <path d="m31.4,19.92c1.78-1.85,4.25-3,6.98-3,3.64,0,6.8,2.02,8.5,5.04,1.51-.67,3.14-1.02,4.8-1.02,6.56,0,11.88,5.36,11.88,11.98s-5.32,11.98-11.88,11.98c-.8,0-1.58-.08-2.35-.23-1.49,2.65-4.33,4.45-7.57,4.45-1.32,0-2.62-.3-3.8-.87-1.51,3.54-5.02,6.03-9.11,6.03s-7.89-2.69-9.29-6.48c-.62.13-1.26.2-1.89.2-5.08,0-9.19-4.17-9.19-9.29,0-3.44,1.85-6.44,4.59-8.05-.58-1.34-.88-2.79-.88-4.25,0-5.91,4.8-10.69,10.71-10.69,3.46,0,6.56,1.65,8.5,4.21" fill="#00a1e0" fill-rule="evenodd" stroke-width="0"/>
      </g>
      <path d="m16.5,35.71c-.03.09.01.11.02.13.1.07.21.13.31.19.56.3,1.09.38,1.65.38,1.13,0,1.83-.6,1.83-1.57v-.02c0-.89-.79-1.22-1.53-1.45l-.1-.03c-.56-.18-1.04-.34-1.04-.71v-.02c0-.32.28-.55.72-.55.49,0,1.06.16,1.43.37,0,0,.11.07.15-.04.02-.06.21-.56.23-.62.02-.06-.02-.1-.05-.13-.43-.26-1.01-.44-1.62-.44h-.11c-1.03,0-1.76.63-1.76,1.52v.02c0,.94.8,1.25,1.54,1.46l.12.04c.54.17,1.01.31,1.01.69v.02c0,.35-.31.61-.8.61-.19,0-.8,0-1.46-.42-.08-.05-.12-.08-.19-.12-.03-.02-.11-.06-.15.05l-.22.62m16.53,0c-.03.09.01.11.02.13.1.07.21.13.31.19.56.3,1.09.38,1.65.38,1.13,0,1.83-.6,1.83-1.57v-.02c0-.89-.79-1.22-1.53-1.45l-.1-.03c-.56-.18-1.04-.34-1.04-.71v-.02c0-.32.28-.55.72-.55.49,0,1.06.16,1.43.37,0,0,.11.07.15-.04.02-.06.21-.56.23-.62.02-.06-.02-.1-.05-.13-.43-.26-1.01-.44-1.62-.44h-.11c-1.03,0-1.76.63-1.76,1.52v.02c0,.94.8,1.25,1.54,1.46l.12.04c.54.17,1.01.31,1.01.69v.02c0,.35-.31.61-.8.61-.19,0-.8,0-1.46-.42-.08-.05-.13-.08-.19-.12-.02-.01-.12-.05-.15.05l-.22.62m11.29-1.89c0,.55-.1.98-.3,1.28-.2.3-.5.45-.92.45s-.72-.15-.91-.45c-.2-.3-.3-.74-.3-1.28s.1-.98.3-1.28c.2-.3.49-.44.91-.44s.72.15.92.44c.2.3.3.73.3,1.28m.94-1.01c-.09-.31-.24-.59-.43-.82-.19-.23-.44-.42-.72-.55-.29-.13-.63-.2-1.01-.2s-.72.07-1.01.2c-.29.13-.53.32-.72.55-.19.23-.34.51-.43.82-.09.31-.14.65-.14,1.01s.05.7.14,1.01c.09.31.24.59.43.82.19.23.44.41.72.55.29.13.63.2,1.01.2s.72-.07,1.01-.2c.29-.13.53-.32.72-.55.19-.23.34-.51.43-.82.09-.31.14-.65.14-1.01s-.05-.7-.14-1.01m7.75,2.59c-.03-.09-.12-.06-.12-.06-.14.05-.28.1-.44.13-.16.02-.33.04-.52.04-.46,0-.82-.14-1.08-.4-.26-.27-.41-.7-.4-1.29,0-.53.13-.94.36-1.24.23-.3.58-.46,1.05-.46.39,0,.69.05,1,.14,0,0,.07.03.11-.07.08-.23.14-.39.23-.64.03-.07-.04-.1-.06-.11-.12-.05-.41-.13-.63-.16-.2-.03-.44-.05-.71-.05-.4,0-.75.07-1.05.2-.3.13-.56.32-.76.55s-.36.51-.46.82c-.1.31-.15.65-.15,1.02,0,.78.21,1.41.63,1.88.42.47,1.04.7,1.86.7.48,0,.98-.1,1.34-.24,0,0,.07-.03.04-.11l-.23-.64m1.65-2.1c.05-.3.13-.56.26-.75.2-.3.49-.46.91-.46s.7.16.89.46c.13.2.19.46.21.75h-2.29s.01,0,.01,0Zm3.18-.67c-.08-.3-.28-.61-.41-.75-.21-.22-.41-.38-.61-.46-.29-.12-.6-.19-.91-.19-.4,0-.76.07-1.05.2-.29.14-.54.33-.73.56-.19.23-.34.51-.43.83-.09.31-.14.66-.14,1.02s.05.71.14,1.02c.1.31.25.58.46.81.21.23.48.41.8.53.32.12.71.19,1.16.19.92,0,1.41-.21,1.61-.32.04-.02.07-.05.03-.15l-.21-.58c-.03-.09-.12-.06-.12-.06-.23.09-.55.24-1.31.24-.5,0-.86-.15-1.09-.38-.23-.23-.35-.58-.37-1.06h3.2s.08,0,.09-.08c0-.03.11-.66-.1-1.37h0Zm-28.74.67c.05-.3.13-.56.26-.75.2-.3.49-.46.91-.46s.7.16.89.46c.13.2.19.46.21.75h-2.29s.01,0,.01,0Zm3.18-.67c-.08-.3-.28-.61-.41-.75-.21-.22-.41-.38-.61-.46-.29-.12-.6-.19-.91-.19-.4,0-.76.07-1.05.2-.29.14-.54.33-.73.56-.19.23-.34.51-.43.83-.09.31-.14.66-.14,1.02s.05.71.14,1.02c.1.31.25.58.46.81.21.23.48.41.8.53.32.12.71.19,1.16.19.92,0,1.41-.21,1.61-.32.04-.02.07-.05.03-.15l-.21-.58c-.03-.09-.12-.06-.12-.06-.23.09-.55.24-1.31.24-.49,0-.86-.15-1.09-.38-.23-.23-.35-.58-.37-1.06h3.2s.08,0,.09-.08c0-.03.11-.66-.1-1.37h0Zm-10.08,2.75c-.13-.1-.14-.12-.18-.19-.06-.1-.1-.24-.1-.41,0-.28.09-.48.29-.62,0,0,.28-.24.93-.23.29,0,.58.03.87.07v1.45h0s-.4.09-.86.11c-.65.04-.94-.19-.94-.19h0Zm1.27-2.25c-.13,0-.3-.01-.5-.01-.27,0-.54.03-.79.1-.25.07-.47.17-.67.31-.19.14-.35.32-.46.53-.11.21-.17.46-.17.74s.05.53.15.73c.1.2.24.37.42.5.18.13.4.22.65.28.25.06.53.09.85.09.33,0,.65-.03.97-.08.27-.05.54-.1.8-.16.11-.02.22-.06.22-.06.08-.02.07-.1.07-.1v-2.91c0-.64-.17-1.12-.51-1.41-.34-.29-.83-.44-1.47-.44-.24,0-.63.03-.86.08,0,0-.7.14-.98.36,0,0-.06.04-.03.13l.23.61c.03.08.1.05.1.05,0,0,.02,0,.05-.03.61-.33,1.39-.32,1.39-.32.34,0,.61.07.79.21.17.13.26.34.26.76v.13c-.27-.04-.53-.06-.53-.06h0Zm25.7-1.65s0-.09-.05-.11c0,0,0,0,0,0-.05-.02-.33-.08-.53-.09-.4-.03-.62.04-.82.13-.2.09-.42.23-.54.4v-.39c0-.05-.04-.1-.09-.1h-.82c-.05,0-.09.04-.09.1v4.76c0,.05.04.1.1.1h.84c.05,0,.1-.04.1-.1v-2.39c0-.32.04-.64.11-.84.07-.2.16-.36.28-.47.11-.11.25-.19.39-.24.14-.04.28-.06.43-.06.17,0,.35.04.35.04.06,0,.1-.03.12-.09.05-.15.21-.58.24-.67" fill="#fffffe" fill-rule="evenodd" stroke-width="0"/>
      <path d="m41.35,29.28c-.1-.03-.21-.06-.32-.07-.14-.02-.29-.04-.43-.03-.58,0-1.03.16-1.35.49-.32.32-.53.81-.64,1.45l-.04.22h-.72s-.09,0-.11.09l-.12.66c0,.06.02.1.1.1h.71l-.72,4c-.06.32-.12.59-.19.79-.07.2-.14.35-.22.45-.08.1-.16.18-.29.23-.11.04-.24.05-.38.05-.08,0-.18-.01-.26-.03-.08-.01-.12-.03-.17-.06,0,0-.08-.03-.12.05-.03.07-.21.58-.24.65-.02.06,0,.11.05.13.09.03.16.06.29.09.18.04.33.04.47.04.29,0,.56-.04.78-.12.22-.08.42-.22.59-.41.19-.21.3-.42.41-.71.11-.29.21-.65.28-1.07l.72-4.07h1.05s.09,0,.11-.09l.12-.66c0-.06-.02-.1-.1-.1h-1.02s.05-.38.17-.72c.05-.14.14-.26.22-.34.07-.08.17-.13.27-.17.11-.03.23-.05.34-.05.1,0,.19.01.26.03.1.02.14.03.16.04.1.03.12,0,.14-.05l.24-.67c.03-.07-.04-.1-.06-.11m-14.26,6.9c0,.05-.04.1-.09.1h-.85c-.05,0-.09-.04-.09-.1v-6.81c0-.05.04-.1.09-.1h.85c.05,0,.09.04.09.1v6.81" fill="#fffffe" fill-rule="evenodd" stroke-width="0"/>
    </g>
  </g>
  <g id="bb" data-name="Rectangles">
    <rect x=".36" y=".36" width="71.28" height="71.28" fill="none" stroke-width="0"/>
  </g>
</svg>