<?xml version="1.0" encoding="UTF-8"?>
<svg xmlns="http://www.w3.org/2000/svg" viewBox="0 0 72 72">
  <g id="f" data-name="VMware vCloud">
    <path d="m17.99,47.24c-.09,0-.18-.01-.27-.03-4.83-1.19-8.2-5.51-8.2-10.49,0-2.43.83-4.82,2.33-6.73,1.3-1.66,3.06-2.9,5.03-3.57.21-3.82,1.79-7.4,4.5-10.16,2.93-2.99,6.82-4.63,10.94-4.63,3.14,0,6.17.94,8.75,2.71,2.25,1.55,4.03,3.64,5.2,6.08.82-.15,1.66-.23,2.5-.23,7.5,0,13.59,6.1,13.59,13.59,0,5.22-3.05,10.04-7.77,12.28-.57.27-1.25.03-1.52-.54s-.03-1.25.54-1.52c3.93-1.87,6.47-5.88,6.47-10.23,0-6.24-5.08-11.32-11.32-11.32-.98,0-1.94.12-2.87.37l-.97.25-.37-.93c-2.02-5.01-6.82-8.25-12.23-8.25-3.5,0-6.81,1.4-9.31,3.95-2.49,2.54-3.87,5.88-3.87,9.42v.9s-.68.17-.68.17c-.11.05-.24.08-.37.09-1.74.47-3.31,1.52-4.45,2.96-1.19,1.51-1.84,3.41-1.84,5.33,0,3.93,2.66,7.33,6.47,8.27.61.15.98.77.83,1.38-.13.52-.59.87-1.1.87Z" fill="#0091da" stroke-width="0"/>
    <path d="m47.43,39.15c3.1,0,5.62-2.52,5.62-5.62s-2.52-5.62-5.62-5.62-5.62,2.52-5.62,5.62c0,.52.07,1.02.21,1.5l-4.72,2.34c-1.45-2.07-3.86-3.43-6.58-3.43-4.43,0-8.04,3.61-8.04,8.04s3.61,8.04,8.04,8.04c1.65,0,3.18-.5,4.45-1.35l3.21,2.91c-.36.68-.57,1.45-.57,2.27,0,2.67,2.17,4.84,4.84,4.84s4.84-2.17,4.84-4.84-2.17-4.84-4.84-4.84c-1.02,0-1.97.32-2.76.87l-3.02-2.74c1.17-1.4,1.88-3.2,1.88-5.16,0-.9-.15-1.77-.43-2.57l4.74-2.35c1.03,1.27,2.6,2.09,4.37,2.09Zm-22.47,2.84c0-3.18,2.58-5.76,5.76-5.76s5.76,2.58,5.76,5.76-2.58,5.76-5.76,5.76-5.76-2.58-5.76-5.76Zm17.7,9.31c1.41,0,2.56,1.15,2.56,2.56s-1.15,2.56-2.56,2.56-2.56-1.15-2.56-2.56,1.15-2.56,2.56-2.56Zm4.78-21.1c1.84,0,3.34,1.5,3.34,3.34s-1.5,3.34-3.34,3.34-3.34-1.5-3.34-3.34,1.5-3.34,3.34-3.34Z" fill="#00c1d5" stroke-width="0"/>
  </g>
  <g id="ay" data-name="Rectangles">
    <rect x=".36" y=".36" width="71.28" height="71.28" fill="none" stroke-width="0"/>
  </g>
</svg>
