<?xml version="1.0" encoding="UTF-8"?>
<svg xmlns="http://www.w3.org/2000/svg" xmlns:xlink="http://www.w3.org/1999/xlink" viewBox="0 0 72 72">
  <defs>
    <linearGradient id="f" x1="9.13" y1="1329.46" x2="50.91" y2="1329.46" gradientTransform="translate(0 1370) scale(1 -1)" gradientUnits="userSpaceOnUse">
      <stop offset="0" stop-color="#0658d4"/>
      <stop offset="1" stop-color="#2c7ef9"/>
    </linearGradient>
    <linearGradient id="g" x1="68.5" y1="1325.96" x2="33.57" y2="1340.93" gradientTransform="translate(0 1370) scale(1 -1)" gradientUnits="userSpaceOnUse">
      <stop offset="0" stop-color="#198852"/>
      <stop offset="1" stop-color="#43b476"/>
    </linearGradient>
  </defs>
  <g id="e" data-name="vTiger">
    <path d="m20.36,24.35c-6.21,0-11.23,5.14-11.23,11.49s5.02,11.49,11.23,11.49c.66,0,1.3-.06,1.94-.18,2.19,5.6,7.54,9.56,13.78,9.56,5.84,0,10.87-3.44,13.3-8.45-1.24-.25-2.42-.68-3.53-1.3-1.89,3.55-5.56,5.95-9.77,5.95-4.62,0-8.61-2.91-10.28-7.03-.35-.86-.59-1.77-.72-2.72h0c-.07-.4-.4-.68-.8-.68-.1,0-.19.01-.28.06-.07.04-.13.07-.21.12-.75.4-1.57.66-2.44.78-.33.04-.66.07-1,.07-4.15,0-7.52-3.46-7.52-7.7s3.37-7.7,7.52-7.7c.34,0,.68.03,1,.07,1.34.19,2.57.74,3.59,1.55.31.24.59.52.86.8.61.65,1.08,1.4,1.43,2.23.01.03.03.07.04.1.13.27.4.46.72.46.22,0,.43-.09.58-.24h0c.65-.62,1.37-1.15,2.17-1.6,1.58-.89,3.4-1.39,5.32-1.39s3.74.5,5.32,1.39c1.18.65,2.22,1.52,3.09,2.56.46.55.87,1.12,1.23,1.76.75,1.31,1.24,2.81,1.42,4.39.01.01.03.04.06.06.22.25.47.47.72.68.87.69,1.89,1.14,2.98,1.3.01-.24.03-.49.03-.72,0-2.01-.38-3.93-1.08-5.69-.65-1.64-1.57-3.13-2.7-4.43-.25-.3-.52-.58-.8-.84-.9-.89-1.91-1.64-3-2.28-2.14-1.24-4.62-1.94-7.25-1.94s-5.11.71-7.25,1.94c-.86-1-1.88-1.85-3.03-2.5-1.08-.61-2.25-1.03-3.5-1.27-.62-.1-1.27-.18-1.94-.18h0Z" fill="url(#f)" stroke-width="0"/>
    <path d="m36.08,14.97c-5.84,0-10.87,3.44-13.3,8.45,1.24.25,2.42.68,3.53,1.3,1.89-3.55,5.56-5.95,9.77-5.95,4.62,0,8.61,2.91,10.28,7.03.35.86.59,1.77.72,2.72h0c.07.38.4.66.8.66.1,0,.19-.01.28-.06.07-.04.13-.07.21-.12.75-.4,1.57-.66,2.44-.78.33-.04.66-.07,1-.07,4.15,0,7.52,3.46,7.52,7.7s-3.37,7.7-7.52,7.7c-.34,0-.68-.03-1-.07-1.34-.19-2.57-.74-3.59-1.55-.31-.25-.59-.52-.86-.8-.61-.65-1.08-1.4-1.43-2.23-.01-.03-.03-.07-.04-.1-.13-.27-.4-.46-.72-.46-.22,0-.43.09-.58.24h0c-.65.62-1.37,1.15-2.17,1.6-1.58.89-3.4,1.39-5.32,1.39s-3.74-.5-5.32-1.39c-1.18-.65-2.22-1.52-3.09-2.56-.46-.55-.87-1.12-1.23-1.76-.75-1.31-1.24-2.81-1.42-4.39-.01-.01-.03-.04-.06-.06-.22-.25-.47-.47-.72-.68-.87-.69-1.89-1.14-2.98-1.3-.01.24-.03.49-.03.72,0,2.01.38,3.93,1.08,5.69.65,1.64,1.57,3.13,2.7,4.43.25.3.52.58.8.84.9.89,1.91,1.65,3,2.28,2.14,1.24,4.62,1.94,7.25,1.94s5.11-.71,7.25-1.94c.86,1,1.88,1.85,3.01,2.5,1.08.61,2.25,1.05,3.5,1.27.64.12,1.27.18,1.94.18,6.21,0,11.23-5.14,11.23-11.49s-5.02-11.49-11.23-11.49c-.66,0-1.31.06-1.94.18-2.16-5.58-7.51-9.54-13.77-9.54Z" fill="url(#g)" stroke-width="0"/>
  </g>
  <g id="ba" data-name="Rectangles">
    <rect x=".36" y=".36" width="71.28" height="71.28" fill="none" stroke-width="0"/>
  </g>
</svg>