<?xml version="1.0" encoding="UTF-8"?>
<svg xmlns="http://www.w3.org/2000/svg" viewBox="0 0 72 72">
  <g id="m" data-name="Samanage">
    <path d="m8.86,9.05v54h54V9.05H8.86Zm30.45,9.68v1.75c0,1.77-.02,3.54.01,5.31,0,.48-.16.75-.57.98-1.35.75-2.68,1.55-4.03,2.29-.24.13-.61.26-.83.17-2.42-.98-4.82-2.01-7.42-3.11,4.33-2.49,8.51-4.89,12.84-7.39Zm-6.68,34.46c0-2.55-.01-4.9.02-7.24,0-.24.22-.57.43-.69,1.4-.84,2.81-1.65,4.24-2.44.23-.13.6-.19.83-.09,2.37.97,4.73,1.98,7.32,3.07-4.33,2.49-8.51,4.9-12.84,7.39Zm13.32-7.68c-.33-.18-.57-.29-.79-.42-6.15-3.54-12.3-7.08-18.47-10.6-.52-.3-.73-.61-.72-1.22.04-2.24.02-4.47.02-6.85.36.19.58.3.79.42,6.15,3.54,12.3,7.08,18.47,10.6.52.3.73.61.72,1.22-.04,2.24-.02,4.47-.02,6.86Z" fill="#002b55" stroke-width="0"/>
  </g>
  <g id="ay" data-name="Rectangles">
    <rect x=".36" y=".36" width="71.28" height="71.28" fill="none" stroke-width="0"/>
  </g>
</svg>