<?xml version="1.0" encoding="UTF-8"?>
<svg xmlns="http://www.w3.org/2000/svg" viewBox="0 0 72 72">
  <g id="j" data-name="SpokePhone">
    <path d="m52.46,9.59H19.71c-5.41,0-9.8,4.39-9.8,9.8v32.54c0,5.41,4.39,9.8,9.8,9.8h42.55V19.39c0-5.41-4.39-9.8-9.8-9.8Zm.09,17.72v.22c0,.17.01.58-.27.86-.19.18-.44.27-.78.25-.67-.02-1.39-.02-2.28,0-.33.01-.58-.08-.76-.25-.25-.24-.27-.57-.27-.8.01-.74,0-1.48,0-2.21v-.67c0-1.09-.42-1.52-1.48-1.52-7.16,0-14.32,0-21.49,0-1,0-1.44.45-1.45,1.47,0,1.46,0,2.93,0,4.39v.73c0,1.06.39,1.45,1.45,1.45h21.57c3.22,0,5.75,2.52,5.75,5.73v1.74c0,1.15-.01,2.31,0,3.46.02,1.59-.57,3.07-1.67,4.17-1.1,1.1-2.56,1.69-4.16,1.66-.31,0-.7-.01-.8.03.01.04.01.42.01.8v8.15l-1.9-1.91c-.73-.73-1.41-1.42-2.1-2.1-1.57-1.53-3.24-3.16-4.93-4.73-.13-.12-.43-.22-.68-.22h-10.9c-1.6.04-3.13-.54-4.25-1.62-1.14-1.11-1.77-2.66-1.77-4.35v-.77c0-.58.01-1.13,0-1.74-.01-.31.01-.7.3-.98.32-.31.77-.27.92-.26.45.04.91.03,1.39.01.4,0,.81-.02,1.21,0l.46.02.09,2.93c0,.21,0,.41,0,.62v.3c0,1.11.37,1.46,1.5,1.46h2.7c3.09,0,6.18.01,9.28-.02.89,0,1.44.39,1.95.98.63.74,1.38,1.5,2.1,2.23.2.2.4.41.6.61,0-.84.01-1.68-.02-2.51-.01-.29,0-.71.3-1,.29-.29.7-.31,1.02-.3h3.62c.9,0,1.36-.46,1.37-1.37,0-1.73,0-3.47,0-5.2,0-1-.45-1.45-1.46-1.45h-4.94c-5.54,0-11.09-.01-16.63,0h-.02c-1.55,0-3.05-.66-4.17-1.78-.41-.41-1.57-1.89-1.57-3.97,0-1.66.03-3.36,0-5.01v-.17c-.02-1.57.56-3.03,1.64-4.12,1.1-1.11,2.62-1.7,4.19-1.71,7.19.03,14.38.02,21.57,0,1.57.04,3.09.64,4.18,1.76,1.06,1.09,1.61,2.51,1.56,3.99-.03.9-.02,1.83,0,2.73Z" fill="#fe5823" stroke-width="0"/>
  </g>
  <g id="ay" data-name="Rectangles">
    <rect x=".36" y=".36" width="71.28" height="71.28" fill="none" stroke-width="0"/>
  </g>
</svg>