<?xml version="1.0" encoding="UTF-8"?>
<svg xmlns="http://www.w3.org/2000/svg" viewBox="0 0 72 72">
  <g id="p" data-name="pipedrive">
    <path d="m17.68,31.36c.6,0,1.08-.48,1.08-1.08s-.48-1.08-1.08-1.08-1.08.48-1.08,1.08.48,1.08,1.08,1.08Z" fill="#017737" stroke-width="0"/>
    <path d="m18.64,31.9h-1.93v6.63h1.93v-6.63Z" fill="#017737" stroke-width="0"/>
    <path d="m48.81,31.36c.6,0,1.08-.48,1.08-1.08s-.48-1.08-1.08-1.08-1.08.48-1.08,1.08.48,1.08,1.08,1.08Z" fill="#017737" stroke-width="0"/>
    <path d="m49.77,31.9h-1.93v6.63h1.93v-6.63Z" fill="#017737" stroke-width="0"/>
    <path d="m63.84,34.99c0-1.89-1.51-3.24-3.33-3.24-2.04,0-3.52,1.42-3.52,3.46s1.39,3.46,3.52,3.46c1.81,0,3.02-1.13,3.25-2.37h-1.87c-.21.54-.83.85-1.42.85-.78-.01-1.36-.48-1.54-1.48h4.89v-.66Zm-4.86-.54c.21-.98.94-1.22,1.54-1.22s1.33.3,1.42,1.22h-2.95Z" fill="#017737" stroke-width="0"/>
    <path d="m55.56,31.9h1.99l-2.7,6.63h-2.04l-2.7-6.63h2.08l1.68,4.39,1.7-4.39Z" fill="#017737" stroke-width="0"/>
    <path d="m44.92,32.95c.45-.7,1.17-1.15,1.99-1.15.15,0,.33.01.45.05v1.81c-.16-.03-.33-.04-.49-.04-1.25,0-1.89.91-1.89,2.22v2.67h-1.92v-4.88c0-.11-.04-.13-.16-.13h-.66v-1.61h1.67c.68,0,1.02.32,1.02.91v.15Z" fill="#017737" stroke-width="0"/>
    <path d="m41.89,36.91c-.11,0-.13-.03-.13-.13v-6.62c0-.66-.34-.97-1.05-.97h-1.68v1.6h.62c.12,0,.16.04.16.15v1.56c-.25-.33-.95-.75-1.89-.75-1.87,0-3.23,1.42-3.23,3.46s1.31,3.46,3.18,3.46c1.05,0,1.79-.53,2.07-.97.03.29.23.83.94.83h1.71v-1.61h-.69Zm-3.63.16c-.93,0-1.6-.71-1.6-1.87s.69-1.84,1.62-1.84c1.05,0,1.58.93,1.58,1.83,0,1.4-.85,1.88-1.59,1.88Z" fill="#017737" stroke-width="0"/>
    <path d="m34.26,34.99c0-1.89-1.51-3.24-3.32-3.24-2.04,0-3.52,1.42-3.52,3.46s1.39,3.46,3.52,3.46c1.81,0,3.02-1.13,3.25-2.37h-1.87c-.21.54-.83.85-1.42.85-.78-.01-1.36-.48-1.54-1.48h4.89v-.66Zm-4.86-.54c.21-.98.94-1.22,1.54-1.22s1.32.3,1.42,1.22h-2.95Z" fill="#017737" stroke-width="0"/>
    <path d="m23.86,31.75c-1.09,0-1.85.57-2.15,1.06-.05-.28-.24-.91-.98-.91h-1.62v1.62h.66c.12,0,.15.03.15.13v7.6h1.93v-3.42c.26.46,1.01.83,1.91.83,1.89,0,3.22-1.4,3.22-3.46,0-2.07-1.26-3.46-3.13-3.46Zm-.49,5.32c-1.05,0-1.55-.94-1.55-1.84,0-1.38.83-1.87,1.58-1.87.9,0,1.62.75,1.62,1.85,0,1.3-.87,1.85-1.64,1.85Z" fill="#017737" stroke-width="0"/>
    <path d="m16.26,35.21c0,2.05-1.32,3.46-3.22,3.46-.9,0-1.64-.37-1.92-.83v.48s.01,2.94.01,2.94h-1.93v-7.6c0-.11-.03-.13-.15-.13h-.66v-1.61h1.62c.74,0,.93.64.98.91.29-.49,1.06-1.06,2.15-1.06,1.87,0,3.13,1.39,3.13,3.45Zm-1.97.01c0-1.1-.72-1.85-1.62-1.85-.74,0-1.58.49-1.58,1.87,0,.9.5,1.84,1.55,1.84.77,0,1.64-.56,1.64-1.85Z" fill="#017737" stroke-width="0"/>
  </g>
  <g id="ay" data-name="Rectangles">
    <rect x=".36" y=".36" width="71.28" height="71.28" fill="none" stroke-width="0"/>
  </g>
</svg>