<?xml version="1.0" encoding="UTF-8"?>
<svg xmlns="http://www.w3.org/2000/svg" viewBox="0 0 72 72">
  <g id="g" data-name="VictorOps">
    <g>
      <circle cx="35.94" cy="36.26" r="26.74" fill="#fbaf40" stroke-width="0"/>
      <path d="m21.2,28.7c3.16,1.42,6.31,2.84,9.47,4.26.23.11.47.21.76.34.2-.73.38-1.35-.13-2.05-.86-1.19-1.62-2.46-2.41-3.7-.11-.17-.24-.5-.17-.6.45-.57.19-1.14.05-1.7-.34-1.37-.7-2.73-1.09-4.29,1.81,1.88,3.47,3.61,5.14,5.34.12-.08.24-.16.36-.24.06-1.24.56-2.45.02-3.73-.49-1.16-.87-2.37-1.34-3.69.77.23,1.44.43,2.21.66.63-1.81,1.26-3.6,1.95-5.57.68,1.94,1.31,3.74,1.95,5.57.74-.23,1.42-.43,2.2-.67-.77,2.49-2.29,4.76-1.15,7.56,1.72-1.77,3.42-3.52,5.13-5.27l.19.11c-.31,1.26-.65,2.51-.94,3.77-.17.72-.64,1.45-.04,2.21.06.08-.1.37-.2.53-.75,1.18-1.46,2.38-2.29,3.5-.53.71-.53,1.39-.25,2.25,3.41-1.55,6.8-3.09,10.18-4.63.04.05.09.1.13.15-.34.47-.69.93-1.03,1.4-.73.98-1.43,1.97-2.19,2.92-.32.4-.3.68-.03,1.08.51.75.95,1.54,1.47,2.37-.39.19-.75.38-1.11.55-2.05.98-4.09,2-6.16,2.92-.77.34-1.09.79-.88,1.68,1.89-.56,3.78-1.11,5.68-1.67.04.06.08.12.12.19-.65.78-1.3,1.56-1.96,2.33-.48.57-1.01,1.1-1.1,1.91-.02.18-.3.39-.5.49-.82.38-1.65.76-2.5,1.06-.62.22-1.04.54-1.11,1.33.42-.12.83-.24,1.47-.42-.94,1.04-1.72,1.91-2.51,2.77-.24.27-.47.55-.74.8-.86.77-1.44,1.66-1.29,2.89,0,0-.11,4.76-.11,6.21-.05.05-.1.1-.16.15-.1,0-.21,0-.31,0-.05,0-.1,0-.15,0-.04-.15-.08-.31-.12-.46.08-.06-.21-5.17-.17-6.12.04-.96-.3-1.65-.96-2.32-1.17-1.2-2.27-2.47-3.35-3.84.39.11.78.21,1.17.32.03.02.06.04.09.06-.02-.03-.03-.07-.05-.1-.02-.64-.34-1.02-.96-1.22-.56-.18-1.1-.45-1.64-.69-.78-.34-1.68-.51-1.71-1.69,0-.33-.46-.66-.73-.97-.74-.89-1.49-1.77-2.36-2.8,2.14.63,4.1,1.21,6.07,1.8.18-.83-.06-1.31-.85-1.66-2.17-.97-4.29-2.02-6.44-3.04-.28-.13-.55-.28-.88-.45.52-.84.99-1.66,1.51-2.45.23-.36.23-.6-.03-.95-1.11-1.46-2.19-2.94-3.28-4.41.03-.03.06-.06.09-.09Z" fill="#241f20" stroke-width="0"/>
    </g>
  </g>
  <g id="ay" data-name="Rectangles">
    <rect x=".36" y=".36" width="71.28" height="71.28" fill="none" stroke-width="0"/>
  </g>
</svg>