<?xml version="1.0" encoding="UTF-8"?>
<svg xmlns="http://www.w3.org/2000/svg" viewBox="0 0 72 72">
  <g id="l" data-name="servicenow">
    <g>
      <rect x="11.44" y="11.27" width="49.94" height="49.94" fill="#293e40" stroke-width="0"/>
      <path d="m36.65,19.67c-9.67,0-17.27,7.6-17.27,17.27,0,5.07,2.07,9.67,5.3,12.9,1.15,1.15,3.22,1.15,4.61.23,1.84-1.61,4.61-2.53,7.37-2.53,2.99,0,5.3.92,7.37,2.53,1.38,1.15,3.22.92,4.61-.46,3.22-3.22,5.3-7.6,5.3-12.67-.23-9.44-7.83-17.27-17.27-17.27m-.23,26.26c-5.3,0-8.75-3.92-8.75-8.75s3.45-8.75,8.75-8.75,8.75,3.92,8.75,8.75-3.45,8.75-8.75,8.75" fill="#81b5a1" fill-rule="evenodd" stroke-width="0"/>
    </g>
  </g>
  <g id="ay" data-name="Rectangles">
    <rect x=".36" y=".36" width="71.28" height="71.28" fill="none" stroke-width="0"/>
  </g>
</svg>