<?xml version="1.0" encoding="UTF-8"?>
<svg xmlns="http://www.w3.org/2000/svg" viewBox="0 0 72 72">
  <g id="k" data-name="Syncplicity">
    <path d="m34.14,34.35c-9.77,7.6-9.68,16.64-4.02,26.77-1.3-.41-2.35-.68-3.35-1.08-5.93-2.34-10.44-6.3-13.55-11.87-.37-.67-.5-1.3-.36-2.08,1.35-7.98,5.46-13.9,12.84-17.44.7-.34,1.27-.35,1.96,0,2.64,1.35,4.74,3.29,6.5,5.71Z" fill="#424d55" stroke-width="0"/>
    <path d="m61.15,41.93c-.4,1.33-.69,2.7-1.22,3.98-2.35,5.57-6.23,9.79-11.52,12.71-.35.19-.84.31-1.23.25-8.16-1.18-14.37-5.16-18.13-12.66-.46-.91-.44-1.64.05-2.52,1.36-2.47,3.22-4.45,5.52-6.11.15.14.26.21.34.31,5.62,7.34,13.25,9.45,21.81,5.99,1.47-.6,2.9-1.33,4.34-1.99l.04.04Z" fill="#fe9f1c" stroke-width="0"/>
    <path d="m42.18,10.53c2.49.53,4.78,1.5,6.93,2.77,4.21,2.47,7.49,5.86,9.79,10.17.26.5.46,1.15.38,1.69-.77,5.11-2.75,9.66-6.5,13.32-1.98,1.93-4.26,3.41-6.78,4.53-.27.12-.66.15-.93.05-2.29-.8-5.71-3.73-7.09-6.12.15-.09.36-.18.54-.32,7.08-5.39,9.18-12.97,5.85-21.33-.64-1.6-1.44-3.13-2.19-4.76Z" fill="#44a7be" stroke-width="0"/>
    <path d="m37.38,33.77c-5.69-7.96-15.09-10.81-26.44-4.3.04-.27.04-.48.09-.68,2.04-7.04,6.3-12.31,12.66-15.93.81-.46,1.57-.38,2.4-.22,7.83,1.48,13.63,5.64,17.03,12.94.18.39.24,1,.08,1.37-1.25,2.82-3.29,4.97-5.82,6.81Z" fill="#b8216e" stroke-width="0"/>
  </g>
  <g id="ay" data-name="Rectangles">
    <rect x=".36" y=".36" width="71.28" height="71.28" fill="none" stroke-width="0"/>
  </g>
</svg>