<?xml version="1.0" encoding="UTF-8"?>
<svg xmlns="http://www.w3.org/2000/svg" viewBox="0 0 72 72">
  <g id="ak" data-name="Cisco webex">
    <g>
      <path d="m9.38,31.87h2.33l1.86,6.02h.04l1.74-6.02h2.33l1.86,6.02h.04l1.79-6.02h2.17l-2.92,8.6h-2.13l-2.04-5.88h-.04l-1.81,5.88h-2.22l-2.99-8.6Z" fill="#231f20" stroke-width="0"/>
      <path d="m25.81,36.92c.07.65.32,1.15.75,1.51.43.36.95.54,1.56.54.54,0,.99-.11,1.35-.33.36-.22.68-.5.96-.83l1.54,1.16c-.5.62-1.06,1.06-1.68,1.33-.62.26-1.27.39-1.95.39-.65,0-1.25-.11-1.83-.32-.57-.21-1.07-.52-1.49-.91-.42-.39-.75-.87-.99-1.42-.24-.56-.37-1.17-.37-1.85s.12-1.3.37-1.85c.24-.56.58-1.03.99-1.42.42-.39.91-.7,1.49-.91.57-.22,1.18-.32,1.83-.32.6,0,1.14.1,1.64.31.5.21.92.51,1.27.9.35.39.63.88.82,1.46.2.58.3,1.25.3,2v.59h-6.56Zm4.41-1.61c-.01-.63-.21-1.13-.59-1.5-.38-.36-.91-.55-1.59-.55-.65,0-1.16.19-1.53.56-.38.37-.61.87-.69,1.49h4.41Z" fill="#231f20" stroke-width="0"/>
      <path d="m33.66,26.92h2.15v6.04h.05c.11-.14.24-.29.41-.44.17-.15.37-.29.61-.42.24-.13.51-.24.82-.32.31-.08.67-.13,1.08-.13.61,0,1.17.12,1.68.35s.95.55,1.32.96c.36.41.65.88.85,1.43.2.55.3,1.14.3,1.77s-.1,1.22-.29,1.77c-.19.55-.47,1.03-.84,1.43-.37.41-.82.73-1.34.96-.53.23-1.12.35-1.77.35-.61,0-1.18-.12-1.7-.36-.53-.24-.94-.62-1.25-1.15h-.04v1.29h-2.04v-13.55Zm7.13,9.25c0-.33-.06-.66-.17-.97-.11-.31-.28-.58-.5-.82-.22-.24-.49-.43-.8-.57-.31-.14-.66-.21-1.06-.21s-.75.07-1.06.21c-.31.14-.58.33-.8.57-.22.24-.39.51-.5.82-.11.31-.17.63-.17.97s.06.66.17.97c.11.31.28.59.5.82.22.24.49.43.8.57.31.14.66.22,1.06.22s.75-.07,1.06-.22c.31-.14.58-.33.8-.57.22-.24.39-.51.5-.82.11-.31.17-.63.17-.97Z" fill="#231f20" stroke-width="0"/>
      <path d="m45.95,36.92c.07.65.32,1.15.75,1.51.43.36.95.54,1.56.54.54,0,.99-.11,1.35-.33.36-.22.68-.5.96-.83l1.54,1.16c-.5.62-1.06,1.06-1.68,1.33-.62.26-1.27.39-1.95.39-.65,0-1.25-.11-1.83-.32-.57-.21-1.07-.52-1.49-.91-.42-.39-.75-.87-.99-1.42-.24-.56-.37-1.17-.37-1.85s.12-1.3.37-1.85c.24-.56.58-1.03.99-1.42.42-.39.91-.7,1.49-.91.57-.22,1.18-.32,1.83-.32.6,0,1.14.1,1.64.31.5.21.92.51,1.27.9.35.39.63.88.82,1.46.2.58.3,1.25.3,2v.59h-6.56Zm4.41-1.61c-.01-.63-.21-1.13-.59-1.5-.38-.36-.91-.55-1.59-.55-.65,0-1.16.19-1.53.56-.38.37-.61.87-.69,1.49h4.41Z" fill="#231f20" stroke-width="0"/>
      <path d="m56.02,35.84l-2.97-3.98h2.62l1.72,2.58,1.86-2.58h2.46l-2.94,3.98,3.46,4.62h-2.62l-2.24-3.08-2.26,3.08h-2.54l3.46-4.62Z" fill="#231f20" stroke-width="0"/>
    </g>
    <g>
      <path d="m48.14,45.33c-.22-.26-.48-.39-.8-.39-.14,0-.27.03-.39.08-.12.05-.22.12-.31.21s-.15.19-.2.31c-.05.12-.07.25-.07.39s.02.27.07.39c.05.12.12.22.2.31s.19.16.31.21c.12.05.24.08.38.08.3,0,.56-.13.8-.38v1.1l-.09.03c-.14.05-.28.09-.4.11-.12.02-.25.04-.37.04-.25,0-.48-.05-.71-.14-.23-.09-.43-.22-.6-.39-.17-.17-.31-.37-.41-.6-.1-.23-.16-.49-.16-.76s.05-.53.15-.76c.1-.23.24-.43.41-.59s.37-.3.6-.39c.23-.09.47-.14.72-.14.14,0,.28.02.42.05.14.03.28.08.43.14v1.11Z" fill="#231f20" stroke-width="0"/>
      <path d="m50.23,44.13v3.58h-.93v-3.58h.93Z" fill="#231f20" stroke-width="0"/>
      <path d="m53.32,45.05c-.1-.08-.2-.14-.3-.18-.1-.04-.2-.06-.29-.06-.12,0-.22.03-.29.09-.08.06-.11.13-.11.22,0,.06.02.12.06.16.04.04.09.08.15.11.06.03.13.06.21.08s.15.05.23.07c.3.1.53.24.67.41.14.17.21.39.21.66,0,.18-.03.35-.09.5-.06.15-.15.28-.27.38-.12.11-.26.19-.44.25s-.37.09-.59.09c-.45,0-.87-.13-1.26-.4l.4-.75c.14.12.28.22.41.28.14.06.27.09.4.09.15,0,.26-.03.34-.1.07-.07.11-.15.11-.24,0-.05,0-.1-.03-.14-.02-.04-.05-.08-.09-.11s-.1-.06-.17-.09c-.07-.03-.16-.06-.26-.09-.12-.04-.24-.08-.35-.13-.12-.05-.22-.11-.31-.18-.09-.08-.16-.17-.22-.29-.06-.12-.08-.26-.08-.44s.03-.34.09-.48c.06-.14.14-.27.25-.37s.24-.18.39-.24.32-.09.51-.09c.18,0,.36.02.55.07.19.05.38.12.56.22l-.37.73Z" fill="#231f20" stroke-width="0"/>
      <path d="m57.28,45.33c-.22-.26-.48-.39-.8-.39-.14,0-.27.03-.39.08-.12.05-.22.12-.31.21s-.15.19-.2.31c-.05.12-.07.25-.07.39s.02.27.07.39c.05.12.12.22.2.31s.19.16.31.21c.12.05.24.08.38.08.3,0,.56-.13.8-.38v1.1l-.09.03c-.14.05-.28.09-.4.11s-.25.04-.37.04c-.25,0-.48-.05-.71-.14-.23-.09-.43-.22-.6-.39-.17-.17-.31-.37-.41-.6-.1-.23-.16-.49-.16-.76s.05-.53.15-.76c.1-.23.24-.43.41-.59s.37-.3.6-.39c.23-.09.47-.14.72-.14.14,0,.28.02.42.05.14.03.28.08.43.14v1.11Z" fill="#231f20" stroke-width="0"/>
      <path d="m58.23,45.92c0-.27.05-.51.15-.74s.23-.43.41-.6c.17-.17.38-.3.62-.4.24-.1.51-.14.8-.14s.55.05.8.14c.24.1.45.23.63.4.18.17.31.37.41.6s.15.48.15.74-.05.51-.15.74-.23.43-.41.6c-.18.17-.38.3-.63.4s-.51.14-.8.14-.56-.05-.8-.14-.45-.23-.62-.4c-.17-.17-.31-.37-.41-.6s-.15-.48-.15-.74Zm.97,0c0,.14.03.27.08.39s.13.22.22.31.2.16.32.21c.12.05.25.07.39.07s.26-.02.39-.07c.12-.05.23-.12.32-.21s.17-.19.22-.31.08-.25.08-.39-.03-.27-.08-.39-.13-.22-.22-.31-.2-.16-.32-.21c-.12-.05-.25-.07-.39-.07s-.27.02-.39.07c-.12.05-.23.12-.32.21s-.16.19-.22.31-.08.25-.08.39Z" fill="#231f20" stroke-width="0"/>
    </g>
    <g>
      <path d="m48.14,45.33c-.22-.26-.48-.39-.8-.39-.14,0-.27.03-.39.08-.12.05-.22.12-.31.21s-.15.19-.2.31c-.05.12-.07.25-.07.39s.02.27.07.39c.05.12.12.22.2.31s.19.16.31.21c.12.05.24.08.38.08.3,0,.56-.13.8-.38v1.1l-.09.03c-.14.05-.28.09-.4.11-.12.02-.25.04-.37.04-.25,0-.48-.05-.71-.14-.23-.09-.43-.22-.6-.39-.17-.17-.31-.37-.41-.6-.1-.23-.16-.49-.16-.76s.05-.53.15-.76c.1-.23.24-.43.41-.59s.37-.3.6-.39c.23-.09.47-.14.72-.14.14,0,.28.02.42.05.14.03.28.08.43.14v1.11Z" fill="#231f20" stroke-width="0"/>
      <path d="m50.23,44.13v3.58h-.93v-3.58h.93Z" fill="#231f20" stroke-width="0"/>
      <path d="m53.32,45.05c-.1-.08-.2-.14-.3-.18-.1-.04-.2-.06-.29-.06-.12,0-.22.03-.29.09-.08.06-.11.13-.11.22,0,.06.02.12.06.16.04.04.09.08.15.11.06.03.13.06.21.08s.15.05.23.07c.3.1.53.24.67.41.14.17.21.39.21.66,0,.18-.03.35-.09.5-.06.15-.15.28-.27.38-.12.11-.26.19-.44.25s-.37.09-.59.09c-.45,0-.87-.13-1.26-.4l.4-.75c.14.12.28.22.41.28.14.06.27.09.4.09.15,0,.26-.03.34-.1.07-.07.11-.15.11-.24,0-.05,0-.1-.03-.14-.02-.04-.05-.08-.09-.11s-.1-.06-.17-.09c-.07-.03-.16-.06-.26-.09-.12-.04-.24-.08-.35-.13-.12-.05-.22-.11-.31-.18-.09-.08-.16-.17-.22-.29-.06-.12-.08-.26-.08-.44s.03-.34.09-.48c.06-.14.14-.27.25-.37s.24-.18.39-.24.32-.09.51-.09c.18,0,.36.02.55.07.19.05.38.12.56.22l-.37.73Z" fill="#231f20" stroke-width="0"/>
      <path d="m57.28,45.33c-.22-.26-.48-.39-.8-.39-.14,0-.27.03-.39.08-.12.05-.22.12-.31.21s-.15.19-.2.31c-.05.12-.07.25-.07.39s.02.27.07.39c.05.12.12.22.2.31s.19.16.31.21c.12.05.24.08.38.08.3,0,.56-.13.8-.38v1.1l-.09.03c-.14.05-.28.09-.4.11s-.25.04-.37.04c-.25,0-.48-.05-.71-.14-.23-.09-.43-.22-.6-.39-.17-.17-.31-.37-.41-.6-.1-.23-.16-.49-.16-.76s.05-.53.15-.76c.1-.23.24-.43.41-.59s.37-.3.6-.39c.23-.09.47-.14.72-.14.14,0,.28.02.42.05.14.03.28.08.43.14v1.11Z" fill="#231f20" stroke-width="0"/>
      <path d="m58.23,45.92c0-.27.05-.51.15-.74s.23-.43.41-.6c.17-.17.38-.3.62-.4.24-.1.51-.14.8-.14s.55.05.8.14c.24.1.45.23.63.4.18.17.31.37.41.6s.15.48.15.74-.05.51-.15.74-.23.43-.41.6c-.18.17-.38.3-.63.4s-.51.14-.8.14-.56-.05-.8-.14-.45-.23-.62-.4c-.17-.17-.31-.37-.41-.6s-.15-.48-.15-.74Zm.97,0c0,.14.03.27.08.39s.13.22.22.31.2.16.32.21c.12.05.25.07.39.07s.26-.02.39-.07c.12-.05.23-.12.32-.21s.17-.19.22-.31.08-.25.08-.39-.03-.27-.08-.39-.13-.22-.22-.31-.2-.16-.32-.21c-.12-.05-.25-.07-.39-.07s-.27.02-.39.07c-.12.05-.23.12-.32.21s-.16.19-.22.31-.08.25-.08.39Z" fill="#231f20" stroke-width="0"/>
    </g>
    <g>
      <path d="m38.15,44.21h.58v1.38h0c.14-.22.39-.37.74-.37.56,0,.97.47.96,1.17,0,.83-.53,1.24-1.05,1.24-.3,0-.56-.11-.73-.4h0l-.03.35h-.5c0-.16.02-.41.02-.65v-2.72Zm.58,2.42s0,.09.01.14c.06.23.27.41.52.41.37,0,.59-.29.59-.76,0-.41-.19-.74-.58-.74-.24,0-.45.17-.52.43,0,.04-.02.09-.02.15v.37Z" fill="#231f20" stroke-width="0"/>
      <path d="m41.25,45.27l.42,1.24c.05.14.09.32.13.45h.01c.04-.13.08-.3.12-.46l.36-1.23h.63l-.58,1.58c-.32.86-.53,1.25-.81,1.49-.23.2-.47.28-.61.3l-.13-.49c.1-.02.22-.08.34-.16.11-.07.24-.21.32-.37.02-.04.04-.08.04-.1,0-.02,0-.06-.03-.11l-.84-2.12h.64Z" fill="#231f20" stroke-width="0"/>
    </g>
  </g>
  <g id="ay" data-name="Rectangles">
    <rect x=".36" y=".36" width="71.28" height="71.28" fill="none" stroke-width="0"/>
  </g>
</svg>