<?xml version="1.0" encoding="UTF-8"?>
<svg xmlns="http://www.w3.org/2000/svg" viewBox="0 0 72 72">
  <g id="q" data-name="PagerDuty">
    <g>
      <path d="m62.25,33.25l-1.24,3.53c-.23.63-.34,1-.55,1.61h-.02c-.16-.53-.31-.95-.53-1.57l-1.21-3.57h-1.45l2.51,6.55c-.06.14-.11.29-.18.44-.21.51-.71.84-1.26.84h-.62v1.11h.64c1.04,0,1.97-.63,2.35-1.6.8-2,2.15-5.4,2.93-7.35h-1.37Z" fill="#06ac38" stroke-width="0"/>
      <path d="m27.5,38.54c0,2.37-1.09,3.65-3.28,3.65-1.63,0-2.62-.86-2.97-2.15h1.32c.23.6.7,1.14,1.67,1.14,1.5,0,2.03-.93,2.03-2.71-.01,0-.01-.01-.02-.01-.32.56-1.05,1.06-2.19,1.06-1.84,0-3.02-1.33-3.02-3.21s1.27-3.26,3.03-3.26c1.14,0,1.82.49,2.19,1.02-.01-.14-.01-.28-.01-.41v-.41h1.25v5.29Zm-5.09-2.25c0,1.27.71,2.18,1.93,2.18,1.1,0,1.95-.77,1.95-2.22,0-1.28-.75-2.14-1.95-2.14s-1.93.86-1.93,2.18Z" fill="#06ac38" stroke-width="0"/>
      <path d="m29.57,36.85c.05,1.15.79,2.06,2.06,2.06.9,0,1.33-.42,1.67-.98h1.26c-.37,1.18-1.41,2.03-2.98,2.03-2.02,0-3.28-1.36-3.28-3.41s1.31-3.49,3.28-3.49c2.13,0,3.12,1.62,3.12,3.38v.41h-5.12Zm3.81-1c-.11-1.04-.76-1.77-1.83-1.77s-1.81.67-1.93,1.77h3.77Z" fill="#06ac38" stroke-width="0"/>
      <path d="m36.71,33.25v.84c.21-.61.85-1,1.58-1,.16,0,.24.01.32.02v1.15c-.11-.02-.3-.04-.44-.04-1.18,0-1.41.87-1.41,2.18v3.39h-1.26v-5.37c0-.41,0-.77-.01-1.17h1.21Z" fill="#06ac38" stroke-width="0"/>
      <path d="m51.57,38.86c-.34.56-.97,1.1-2.08,1.1-1.52,0-2.27-.93-2.27-2.63v-4.08h1.26v3.6c0,1.28.42,2.06,1.45,2.06,1.35,0,1.58-1.22,1.58-2.66v-3h1.26v5.56c0,.34,0,.66.01.98h-1.21v-.93h0Z" fill="#06ac38" stroke-width="0"/>
      <path d="m55.6,33.25h1.22v.97h-1.22v3.93c0,.62.31.81.8.81.08,0,.24-.01.31-.02v.93c-.19.02-.32.05-.49.05-1.16,0-1.89-.38-1.89-1.7v-4h-.98v-.97h.98v-1.77h1.27v1.77Z" fill="#06ac38" stroke-width="0"/>
      <g>
        <rect x="8.49" y="37.42" width="1.31" height="2.38" fill="#06ac38" stroke-width="0"/>
        <path d="m13.41,31.31c-.7-.37-1.19-.44-2.34-.44h-2.58v5.41h2.57c1.02,0,1.79-.06,2.46-.51.74-.49,1.11-1.3,1.11-2.23,0-1.01-.47-1.82-1.23-2.23Zm-2.05,3.84h-1.57v-3.12h1.48c1.35-.03,2.02.45,2.02,1.52,0,1.15-.83,1.6-1.93,1.6Z" fill="#06ac38" stroke-width="0"/>
      </g>
      <path d="m39.39,30.88h2.18c3.27.02,4.84,1.62,4.85,4.48.01,2.44-1.25,4.41-4.64,4.44h-2.39v-8.92h0Zm1.32,7.81h.76c2.37,0,3.61-.9,3.61-3.33,0-2.13-1.23-3.35-3.48-3.35-.44,0-.89.01-.89.01v6.67Z" fill="#06ac38" stroke-width="0"/>
      <path d="m19.22,39.8c-.04-.26-.04-.42-.06-.9-.5.71-1.16,1.02-2.21,1.02-1.37,0-2.37-.67-2.37-1.89,0-1.41,1.35-1.87,3.09-2.11.44-.06.92-.11,1.35-.15,0-1.3-.72-1.69-1.47-1.69s-1.3.53-1.3,1.22h-1.22c0-1.33,1.05-2.22,2.55-2.22s2.66.62,2.66,3.02v1.27c0,1.06.05,1.83.16,2.43h-1.19Zm-3.28-1.79c0,.61.5,1,1.3,1,1.17,0,1.8-.71,1.8-1.99,0-.16,0-.28.01-.35-2.13.22-3.11.43-3.11,1.34Z" fill="#06ac38" stroke-width="0"/>
    </g>
  </g>
  <g id="ay" data-name="Rectangles">
    <rect x=".36" y=".36" width="71.28" height="71.28" fill="none" stroke-width="0"/>
  </g>
</svg>