<?xml version="1.0" encoding="UTF-8"?>
<svg xmlns="http://www.w3.org/2000/svg" viewBox="0 0 72 72">
  <g id="h" data-name="ThousandEyes">
    <g>
      <path d="m23.87,35.28c2.24,3.03,8.65,10.29,16.64,10.29,5.57,0,11.13-3.45,16.46-10.29-5.38-6.66-10.89-10.04-16.46-10.04-7.99.06-14.34,7.14-16.64,10.04m16.7,15c-12.71,0-21.24-13.19-21.54-13.73l-.85-1.27.85-1.27c.3-.54,8.83-13.49,21.54-13.49,7.5,0,14.7,4.48,21.36,13.31l1.03,1.39-1.03,1.45c-6.72,9.08-13.85,13.61-21.36,13.61" fill="#ff671d" stroke-width="0"/>
      <path d="m30.89,50.28c-12.34-.36-20.39-13.31-20.75-13.85l-.67-1.27.79-1.27c.3-.54,8.17-12.95,20.51-13.37-9.56,4.42-16.21,14.82-16.21,14.82,0,0,5.57,9.38,16.34,14.94" fill="#ff671d" stroke-width="0"/>
      <path d="m38.75,43.02c3.09-1.69,6.72-3.93,9.74-7.74-2.96-3.69-7.08-5.81-10.1-7.5,7.32-1.57,13.67,5.63,13.67,5.63l1.69,1.88-1.69,1.94c-6.66,7.26-13.31,5.81-13.31,5.81" fill="#ff671d" stroke-width="0"/>
      <circle cx="35.85" cy="35.4" r="3.39" fill="#ff671d" stroke-width="0"/>
    </g>
  </g>
  <g id="ay" data-name="Rectangles">
    <rect x=".36" y=".36" width="71.28" height="71.28" fill="none" stroke-width="0"/>
  </g>
</svg>