<?xml version="1.0" encoding="UTF-8"?>
<svg xmlns="http://www.w3.org/2000/svg" viewBox="0 0 72 72">
  <g id="i" data-name="Tableau">
    <polygon points="45.04 34.45 37.57 34.45 37.57 26.37 34.68 26.37 34.68 34.45 27.22 34.45 27.22 37.34 34.68 37.34 34.68 45.39 37.57 45.39 37.57 37.34 45.04 37.34 45.04 34.45" fill="#e8762c" stroke-width="0"/>
    <polygon points="30.02 47.56 23.47 47.56 23.47 40.47 20.94 40.47 20.94 47.56 14.39 47.56 14.39 50.09 20.94 50.09 20.94 57.16 23.47 57.16 23.47 50.09 30.02 50.09 30.02 47.56" fill="#c72035" stroke-width="0"/>
    <polygon points="57.93 47.56 51.38 47.56 51.38 40.47 48.84 40.47 48.84 47.56 42.29 47.56 42.29 50.09 48.84 50.09 48.84 57.16 51.38 57.16 51.38 50.09 57.93 50.09 57.93 47.56" fill="#1f447e" stroke-width="0"/>
    <polygon points="63.21 34.99 58.51 34.99 58.51 29.9 56.69 29.9 56.69 34.99 51.99 34.99 51.99 36.81 56.69 36.81 56.69 41.89 58.51 41.89 58.51 36.81 63.21 36.81 63.21 34.99" fill="#5b6591" stroke-width="0"/>
    <polygon points="41.77 55.81 37.07 55.81 37.07 50.72 35.25 50.72 35.25 55.81 30.55 55.81 30.55 57.63 35.25 57.63 35.25 62.7 37.07 62.7 37.07 57.63 41.77 57.63 41.77 55.81" fill="#5b6591" stroke-width="0"/>
    <polygon points="19.63 35.12 15.25 35.12 15.25 30.38 13.56 30.38 13.56 35.12 9.18 35.12 9.18 36.82 13.56 36.82 13.56 41.55 15.25 41.55 15.25 36.82 19.63 36.82 19.63 35.12" fill="#7099a6" stroke-width="0"/>
    <polygon points="41.46 14.16 37.08 14.16 37.08 9.42 35.39 9.42 35.39 14.16 31 14.16 31 15.86 35.39 15.86 35.39 20.59 37.08 20.59 37.08 15.86 41.46 15.86 41.46 14.16" fill="#7099a6" stroke-width="0"/>
    <polygon points="30.02 21.72 23.47 21.72 23.47 14.62 20.94 14.62 20.94 21.72 14.39 21.72 14.39 24.25 20.94 24.25 20.94 31.32 23.47 31.32 23.47 24.25 30.02 24.25 30.02 21.72" fill="#eb912c" stroke-width="0"/>
    <polygon points="57.93 21.72 51.38 21.72 51.38 14.62 48.84 14.62 48.84 21.72 42.29 21.72 42.29 24.25 48.84 24.25 48.84 31.32 51.38 31.32 51.38 24.25 57.93 24.25 57.93 21.72" fill="#59879b" stroke-width="0"/>
  </g>
  <g id="ay" data-name="Rectangles">
    <rect x=".36" y=".36" width="71.28" height="71.28" fill="none" stroke-width="0"/>
  </g>
</svg>