<?xml version="1.0" encoding="UTF-8"?>
<svg xmlns="http://www.w3.org/2000/svg" viewBox="0 0 72 72">
  <g id="c" data-name="ZOHO">
    <g>
      <g>
        <path d="m32.86,43.19c-.43,0-.87-.09-1.28-.27h0l-8.94-3.98c-1.6-.71-2.32-2.59-1.61-4.19l3.98-8.94c.71-1.6,2.59-2.32,4.19-1.61l8.94,3.98c1.6.71,2.32,2.59,1.61,4.19l-3.98,8.94c-.53,1.18-1.69,1.88-2.9,1.88Zm-.54-1.95c.68.3,1.47,0,1.77-.68l3.98-8.94c.3-.68,0-1.47-.68-1.77l-8.94-3.98c-.68-.3-1.47,0-1.77.68l-3.98,8.94c-.3.68,0,1.47.68,1.77l8.94,3.98Z" fill="#089949" stroke-width="0"/>
        <path d="m60.89,43.19h-9.79c-1.75,0-3.17-1.42-3.17-3.17v-9.79c0-1.75,1.42-3.17,3.17-3.17h9.79c1.75,0,3.17,1.42,3.17,3.17v9.79c0,1.75-1.42,3.17-3.17,3.17Zm-9.79-14.3c-.74,0-1.34.6-1.34,1.34v9.79c0,.74.6,1.34,1.34,1.34h9.79c.74,0,1.34-.6,1.34-1.34v-9.79c0-.74-.6-1.34-1.34-1.34h-9.79Z" fill="#f9b21d" stroke-width="0"/>
        <path d="m24.25,32.02l-1.32,2.95s-.03.06-.05.09l.51,3.17c.12.73-.38,1.42-1.11,1.54l-9.66,1.56c-.35.06-.71-.03-1-.23-.29-.21-.48-.52-.54-.87l-1.56-9.66c-.06-.35.03-.71.23-1,.21-.29.52-.48.87-.54l9.66-1.56c.07-.01.15-.02.21-.02.64,0,1.22.47,1.32,1.13l.52,3.2,1.36-3.06-.07-.43c-.28-1.73-1.91-2.9-3.64-2.63l-9.66,1.56c-.83.13-1.57.58-2.06,1.27-.5.69-.69,1.52-.56,2.36l1.56,9.66c.13.84.59,1.57,1.27,2.07.54.4,1.18.6,1.85.6.17,0,.34-.01.51-.04l9.66-1.56c1.73-.28,2.9-1.91,2.63-3.64l-.96-5.92Z" fill="#e42527" stroke-width="0"/>
        <g>
          <path d="m35.84,36.64l1.42-3.18-.4-2.95c-.05-.35.04-.7.26-.99.22-.28.53-.47.89-.51l9.7-1.32c.06,0,.12-.01.18-.01.29,0,.57.09.81.27.04.03.08.07.12.11.43-.45.99-.78,1.63-.92-.18-.25-.39-.46-.64-.65-.68-.51-1.51-.73-2.35-.62l-9.71,1.32c-.84.11-1.59.55-2.09,1.22-.51.68-.73,1.51-.62,2.35l.8,5.89Z" fill="#226db4" stroke-width="0"/>
          <path d="m52.34,38.28l-1.27-9.38c-.71.02-1.29.61-1.29,1.34v2.75l.75,5.54c.05.35-.04.7-.26.99s-.53.47-.89.51l-9.7,1.32c-.35.05-.7-.04-.99-.26-.28-.22-.47-.53-.51-.89l-.45-3.29-1.42,3.18.05.36c.11.84.55,1.59,1.22,2.09.56.42,1.22.65,1.92.65.15,0,.29-.01.44-.03l9.69-1.31c.84-.11,1.59-.55,2.09-1.22.51-.68.73-1.51.62-2.35Z" fill="#226db4" stroke-width="0"/>
        </g>
      </g>
      <g>
        <path d="m24.98,47.83l1.39-2.04h-1.14c-.06,0-.11-.05-.11-.11v-.27c0-.06.05-.11.11-.11h1.87c.06,0,.11.05.11.11v.11s0,.04-.02.06l-1.36,2.04h1.22c.06,0,.11.05.11.11v.27c0,.06-.05.11-.11.11h-1.98c-.06,0-.11-.05-.11-.11v-.1s0-.05.02-.07Z" stroke-width="0"/>
        <path d="m30.81,46.68c0-.84.61-1.44,1.45-1.44s1.45.59,1.45,1.45-.6,1.46-1.46,1.46c-.87,0-1.44-.6-1.44-1.47Zm2.24.01c0-.51-.25-.94-.8-.94s-.77.45-.77.97c0,.49.26.93.8.93.55,0,.77-.48.77-.96Z" stroke-width="0"/>
        <path d="m37.69,45.29h.41c.06,0,.11.05.11.11v1.04h1.17v-1.04c0-.06.05-.11.11-.11h.41c.06,0,.11.05.11.11v2.6c0,.06-.05.11-.11.11h-.41c-.06,0-.11-.05-.11-.11v-1.05h-1.17v1.05c0,.06-.05.11-.11.11h-.41c-.06,0-.11-.05-.11-.11v-2.6c0-.06.04-.11.11-.11Z" stroke-width="0"/>
        <path d="m43.88,46.68c0-.84.61-1.44,1.45-1.44s1.45.59,1.45,1.45-.6,1.46-1.46,1.46c-.87,0-1.44-.6-1.44-1.47Zm2.23.01c0-.51-.25-.94-.8-.94s-.77.45-.77.97c0,.49.26.93.8.93.55,0,.77-.48.77-.96Z" stroke-width="0"/>
      </g>
    </g>
  </g>
  <g id="ay" data-name="Rectangles">
    <rect x=".36" y=".36" width="71.28" height="71.28" fill="none" stroke-width="0"/>
  </g>
</svg>